<?xml version="1.0" encoding="utf-8"?>
<!-- Generator: Adobe Illustrator 23.0.4, SVG Export Plug-In . SVG Version: 6.00 Build 0)  -->
<svg version="1.1" xmlns="http://www.w3.org/2000/svg" xmlns:xlink="http://www.w3.org/1999/xlink" x="0px" y="0px"
	 viewBox="0 0 80 80" enable-background="new 0 0 80 80" xml:space="preserve">
<g id="Layer_1">
</g>
<g id="Layer_2">
	<g>
		<g>
			<path fill="none" stroke="#1997CE" stroke-miterlimit="10" d="M73.24,27.649l-16.893,0"/>
			<path fill="none" stroke="#1997CE" stroke-miterlimit="10" d="M66.743,34.147l6.497-6.497l-6.497-6.497"/>
		</g>
		<g>
			<path fill="none" stroke="#1997CE" stroke-miterlimit="10" d="M73.238,48.667l-16.893,0"/>
			<path fill="none" stroke="#1997CE" stroke-miterlimit="10" d="M66.741,55.165l6.497-6.497l-6.497-6.497"/>
		</g>
		<path fill="#ECECEC" stroke="#040000" stroke-miterlimit="10" d="M34.195,13.396V6.155l22.29,12.895v54.796L44.32,64.111
			l-9.661-8.594L34.195,13.396z"/>
		<path fill="#FFFFFF" stroke="#040000" d="M18.763,23.213V6.154l22.29,12.895v54.796l-22.29-17.729v-3.224"/>
		<path fill="none" stroke="#1997CE" stroke-miterlimit="10" d="M29.023,48.683h-8.558c-7.567,0-13.706,5.759-13.706,12.866"/>
		<path id="Rectangle_618_copy_2_2_" fill="none" stroke="#1997CE" stroke-miterlimit="10" d="M29.023,27.682h-8.558
			c-7.567,0-13.706-5.76-13.706-12.866"/>
		<path fill="none" stroke="#1997CE" stroke-miterlimit="10" d="M8.475,37.131h20.576"/>
	</g>
</g>
<g id="Layer_3" display="none">
</g>
</svg>
