<?xml version="1.0" encoding="utf-8"?>
<!-- Generator: Adobe Illustrator 23.0.4, SVG Export Plug-In . SVG Version: 6.00 Build 0)  -->
<svg version="1.1" id="Layer_1" xmlns="http://www.w3.org/2000/svg" xmlns:xlink="http://www.w3.org/1999/xlink" x="0px" y="0px"
	 viewBox="0 0 80 80" enable-background="new 0 0 80 80" xml:space="preserve">
<g>
	<g>
		<line fill="none" stroke="#040000" stroke-miterlimit="10" x1="17.251" y1="9.65" x2="17.251" y2="42.165"/>
		<line fill="none" stroke="#040000" stroke-miterlimit="10" x1="63.702" y1="9.65" x2="63.702" y2="42.165"/>
		<line fill="none" stroke="#040000" stroke-miterlimit="10" x1="9.632" y1="50.4" x2="9.632" y2="17.889"/>
		<line fill="none" stroke="#040000" stroke-miterlimit="10" x1="71.321" y1="17.889" x2="71.321" y2="50.4"/>
		<path fill="#ECECEC" stroke="#040000" stroke-miterlimit="10" d="M40.039,49.358C27.211,49.34,16.478,58.325,13.803,70.35h52.393
			C63.528,58.355,52.84,49.377,40.039,49.358z"/>
		<path fill="none" stroke="#040000" stroke-miterlimit="10" d="M40.039,49.358c12.801,0.018,23.489,8.997,26.158,20.991H72.5
			c-2.761-15.428-16.227-27.151-32.453-27.175C23.789,43.151,10.267,54.883,7.5,70.35h6.303
			C16.478,58.325,27.211,49.34,40.039,49.358z"/>
		<circle fill="#1997CE" stroke="#040000" stroke-miterlimit="10" cx="40" cy="56.391" r="2.415"/>
		<polygon fill="#1997CE" stroke="#040000" stroke-miterlimit="10" points="34.65,21.357 36.074,23.961 38.678,25.385 
			36.074,26.809 34.65,29.413 33.226,26.809 30.622,25.385 33.226,23.961 		"/>
		<polygon fill="#1997CE" stroke="#040000" stroke-miterlimit="10" points="45.516,14.755 47.712,18.771 51.728,20.967 
			47.712,23.163 45.516,27.178 43.32,23.163 39.305,20.967 43.32,18.771 		"/>
	</g>
</g>
<g id="Layer_3" display="none">
</g>
</svg>
