<?xml version="1.0" encoding="utf-8"?>
<!-- Generator: Adobe Illustrator 24.2.1, SVG Export Plug-In . SVG Version: 6.00 Build 0)  -->
<svg version="1.0" id="Layer_1" xmlns="http://www.w3.org/2000/svg" xmlns:xlink="http://www.w3.org/1999/xlink" x="0px" y="0px"
	 viewBox="0 0 85.04 85.04" style="enable-background:new 0 0 85.04 85.04;" xml:space="preserve">
<style type="text/css">
	.st0{display:none;}
	.st1{display:inline;fill:none;stroke:#000000;stroke-miterlimit:10;}
	.st2{display:inline;fill:#1997CE;stroke:#000000;stroke-miterlimit:10;}
	.st3{display:inline;}
	.st4{fill:none;stroke:#1997CE;stroke-miterlimit:10;}
	.st5{display:none;fill:#FFFFFF;}
	.st6{fill:none;stroke:#000000;stroke-miterlimit:10;}
	.st7{fill:#1997CE;stroke:#000000;stroke-miterlimit:10;}
</style>
<g class="st0">
	<polyline class="st1" points="51.54,24.62 62.24,24.62 69.97,34.97 15.07,34.97 22.8,24.62 33.33,24.62 	"/>
	<path class="st2" d="M48.72,21.75c0,3.42-2.78,6.2-6.2,6.2s-6.2-2.78-6.2-6.2s6.2-11.07,6.2-11.07S48.72,18.32,48.72,21.75z"/>
	<line class="st1" x1="71.52" y1="40.33" x2="13.52" y2="40.33"/>
	<g class="st3">
		<line class="st4" x1="42.48" y1="45.75" x2="42.48" y2="74.37"/>
		<g>
			<g>
				<polyline class="st4" points="27.05,56.88 32.25,51.68 37.46,56.88 				"/>
				<path class="st4" d="M32.25,51.68v16.17c0,2.96-2.4,5.37-5.37,5.37"/>
			</g>
			<g>
				<polyline class="st4" points="57.99,56.88 52.79,51.67 47.59,56.88 				"/>
				<path class="st4" d="M52.79,51.67v16.17c0,2.96,2.4,5.37,5.37,5.37"/>
			</g>
		</g>
		<polyline class="st4" points="37.32,50.69 42.52,45.49 47.72,50.69 		"/>
	</g>
</g>
<rect y="0" class="st5" width="85.04" height="85.04"/>
<g>
	<g>
		<line class="st4" x1="41.95" y1="40.87" x2="41.95" y2="71.36"/>
		<g>
			<g>
				<polyline class="st4" points="28.85,53.14 33.27,48.72 37.69,53.14 				"/>
				<path class="st4" d="M33.27,48.72v19.92c0,2.52-2.04,4.56-4.56,4.56"/>
			</g>
			<g>
				<polyline class="st4" points="55.13,53.14 50.71,48.72 46.29,53.14 				"/>
				<path class="st4" d="M50.71,48.72v19.92c0,2.52,2.04,4.56,4.56,4.56"/>
			</g>
		</g>
		<polyline class="st4" points="37.57,45.07 41.99,40.65 46.41,45.07 		"/>
	</g>
	<g>
		<path class="st6" d="M27.6,49.63c-3.9-3.77-6.33-9.06-6.33-14.91C21.27,23.27,30.55,14,41.99,14s20.72,9.28,20.72,20.72
			c0,5.9-2.47,11.22-6.42,15"/>
		<path class="st6" d="M30.14,44.71c-2.28-2.7-3.65-6.18-3.65-9.99c0-8.56,6.94-15.5,15.5-15.5s15.5,6.94,15.5,15.5
			c0,3.84-1.4,7.35-3.71,10.06"/>
		<circle class="st7" cx="41.99" cy="25.02" r="2.36"/>
	</g>
</g>
</svg>
