<?xml version="1.0" encoding="utf-8"?>
<!-- Generator: Adobe Illustrator 23.0.4, SVG Export Plug-In . SVG Version: 6.00 Build 0)  -->
<svg version="1.1" id="Layer_1" xmlns="http://www.w3.org/2000/svg" xmlns:xlink="http://www.w3.org/1999/xlink" x="0px" y="0px"
	 viewBox="0 0 80 80" enable-background="new 0 0 80 80" xml:space="preserve">
<g>
	<g>
		<g>
			<path fill="none" stroke="#040000" stroke-miterlimit="10" d="M64.748,45.197H16.21c-4.395,0-7.958-3.563-7.958-7.958
				s3.563-7.958,7.958-7.958h47.644c4.395,0,7.958-3.563,7.958-7.958s-3.563-7.958-7.958-7.958H14.312"/>
			<path fill="none" stroke="#040000" stroke-miterlimit="10" d="M16.21,61.069h47.644c4.395,0,7.958-3.563,7.958-7.958
				s-3.563-7.958-7.958-7.958H15.3"/>
			<circle fill="#ECECEC" stroke="#040000" stroke-miterlimit="10" cx="11.72" cy="13.87" r="3.532"/>
		</g>
		<polygon fill="#1997CE" stroke="#040000" stroke-miterlimit="10" points="50.816,67.039 56.703,61.152 50.816,55.265 		"/>
		<polygon fill="#1997CE" stroke="#040000" stroke-miterlimit="10" points="56.703,19.3 50.816,13.413 56.703,7.527 		"/>
		<polygon fill="#1997CE" stroke="#040000" stroke-miterlimit="10" points="30.683,35.251 36.569,29.365 30.683,23.479 		"/>
		<g>
			<circle fill="none" stroke="#040000" stroke-miterlimit="10" cx="20.373" cy="61.132" r="11.341"/>
			<circle fill="#ECECEC" stroke="#040000" stroke-miterlimit="10" cx="20.373" cy="61.132" r="8.626"/>
			<circle fill="#1997CE" stroke="#040000" stroke-miterlimit="10" cx="25.199" cy="61.132" r="1.255"/>
		</g>
	</g>
</g>
<g id="Layer_3" display="none">
</g>
</svg>
