<?xml version="1.0" encoding="utf-8"?>
<!-- Generator: Adobe Illustrator 23.0.4, SVG Export Plug-In . SVG Version: 6.00 Build 0)  -->
<svg version="1.1" id="Layer_1" xmlns="http://www.w3.org/2000/svg" xmlns:xlink="http://www.w3.org/1999/xlink" x="0px" y="0px"
	 viewBox="0 0 80 80" enable-background="new 0 0 80 80" xml:space="preserve">
<g id="Layer_3" display="none">
</g>
<g>
	<path fill="none" stroke="#040000" stroke-miterlimit="10" d="M35.578,19.982c2.627-6.052,8.656-10.281,15.674-10.281
		c9.434,0,17.081,7.647,17.081,17.081s-7.647,17.081-17.081,17.081c-1.683,0-3.31-0.244-4.846-0.698"/>
	<path fill="none" stroke="#040000" stroke-miterlimit="10" d="M40.362,19.692c2.319-3.554,6.33-5.902,10.888-5.902
		c7.175,0,12.993,5.818,12.993,12.993s-5.815,12.993-12.993,12.993c-1.735,0-3.39-0.34-4.901-0.957"/>
	<circle fill="#00A1DF" stroke="#040000" stroke-miterlimit="10" cx="51.252" cy="19.513" r="1.889"/>
	<path fill="none" stroke="#040000" stroke-linecap="round" stroke-linejoin="round" d="M43.145,74.039H14.843
		c-1.755,0-3.176-1.422-3.176-3.176V23.31c0-1.755,1.422-3.176,3.176-3.176h28.302c1.755,0,3.176,1.422,3.176,3.176v47.553
		C46.321,72.617,44.9,74.039,43.145,74.039z"/>
	<circle fill="#00A1DF" stroke="#040000" stroke-miterlimit="10" cx="28.994" cy="67.413" r="1.889"/>
	
		<line fill="none" stroke="#040000" stroke-linecap="round" stroke-linejoin="round" x1="26.337" y1="26.27" x2="31.653" y2="26.27"/>
	<rect x="16.066" y="30.992" fill="#ECECEC" stroke="#040000" stroke-miterlimit="10" width="25.861" height="29.736"/>
	<g>
		<path fill="none" stroke="#00A1DF" stroke-miterlimit="10" d="M26.613,14.301c1.282-1.387,3.45-1.471,4.836-0.186
			c0.08,0.075,0.157,0.152,0.229,0.234 M24.672,11.451c2.376-2.45,6.293-2.513,8.743-0.134c0.07,0.067,0.134,0.134,0.201,0.204
			 M22.734,8.645c3.534-3.559,9.282-3.581,12.844-0.05c0.015,0.015,0.032,0.032,0.05,0.05"/>
	</g>
</g>
</svg>
