<?xml version="1.0" encoding="utf-8"?>
<!-- Generator: Adobe Illustrator 23.0.4, SVG Export Plug-In . SVG Version: 6.00 Build 0)  -->
<svg version="1.1" xmlns="http://www.w3.org/2000/svg" xmlns:xlink="http://www.w3.org/1999/xlink" x="0px" y="0px"
	 viewBox="0 0 80 80" enable-background="new 0 0 80 80" xml:space="preserve">
<g id="Layer_1">
</g>
<g id="Layer_2">
	<g>
		<path fill="#1997CE" stroke="#040000" stroke-miterlimit="10" d="M45.977,18.429c-0.038-0.509-0.138-1.01-0.299-1.494
			C44.483,12.651,40,7.072,40,7.072s-4.483,5.579-5.678,9.862c-0.161,0.484-0.261,0.986-0.299,1.494v0.498
			c0,3.301,2.676,5.977,5.977,5.977s5.977-2.676,5.977-5.977V18.429z"/>
		<g>
			<path fill="none" stroke="#1997CE" stroke-miterlimit="10" d="M34.478,54.302l-4.917-4.917l-4.917,4.917"/>
			<path fill="none" stroke="#1997CE" stroke-miterlimit="10" d="M44.917,48.608L40,43.691l-4.917,4.917"/>
			<path fill="none" stroke="#1997CE" stroke-miterlimit="10" d="M55.357,54.302l-4.917-4.917l-4.917,4.917"/>
			<path fill="none" stroke="#1997CE" stroke-miterlimit="10" d="M29.56,49.95v11.389"/>
			<path fill="none" stroke="#1997CE" stroke-miterlimit="10" d="M29.56,60.389v3.986c0,4.193-3.399,7.592-7.592,7.592"/>
			<path fill="none" stroke="#1997CE" stroke-miterlimit="10" d="M50.458,49.023v11.378"/>
			<path fill="none" stroke="#1997CE" stroke-miterlimit="10" d="M50.458,60.401v3.974c-0.007,4.186,3.381,7.586,7.568,7.592
				c0.002,0,0.004,0,0.007,0"/>
			<path fill="none" stroke="#1997CE" stroke-miterlimit="10" d="M40.018,44.277v28.651"/>
		</g>
		<g>
			<polyline fill="none" stroke="#040000" points="30.957,21.995 17.91,21.995 11.007,31.612 40,31.612 			"/>
			<polyline fill="none" stroke="#040000" points="48.872,21.995 62.09,21.995 68.993,31.612 40,31.612 			"/>
		</g>
		<line fill="none" stroke="#040000" x1="7.901" y1="37.622" x2="72.099" y2="37.622"/>
	</g>
</g>
<g id="Layer_3" display="none">
</g>
</svg>
