<svg xmlns="http://www.w3.org/2000/svg" viewBox="0 0 80 80"><defs><style>.cls-1{fill:#1997ce;}.cls-1,.cls-2,.cls-3,.cls-6{stroke:#212121;}.cls-1,.cls-2,.cls-6{stroke-miterlimit:10;}.cls-2,.cls-3{fill:none;}.cls-4{fill:#fff;}.cls-5{fill:#212121;}.cls-6{fill:#ececec;}</style></defs><title>edge_03</title><g id="아이콘"><path class="cls-1" d="M40.7,19.4l-6.5,6.5H29.9a.7.7,0,0,0-.7.7v4.3a.7.7,0,0,0,.7.7h4.3l6.5,6.5Z"/><line class="cls-2" x1="45" y1="25.9" x2="50.8" y2="31.6"/><line class="cls-2" x1="50.8" y1="25.9" x2="45" y2="31.6"/><line class="cls-3" x1="62.3" y1="60.2" x2="76.2" y2="60.2"/><line class="cls-3" x1="3.8" y1="60.2" x2="17.7" y2="60.2"/><path class="cls-4" d="M23.1,60.1a2.6,2.6,0,0,1-2.6-2.6V50.3a7.4,7.4,0,0,1,7.4-7.4H52.4a7.4,7.4,0,0,1,7.4,7.4v7.2a2.7,2.7,0,0,1-2.7,2.6Z"/><path class="cls-5" d="M52.4,43.4a6.9,6.9,0,0,1,6.9,6.9v7.2a2.1,2.1,0,0,1-2.2,2.1h-34A2.1,2.1,0,0,1,21,57.5V50.3a6.9,6.9,0,0,1,6.9-6.9H52.4m0-1H27.9A7.9,7.9,0,0,0,20,50.3v7.2a3.1,3.1,0,0,0,3.1,3.1h34a3.2,3.2,0,0,0,3.2-3.1V50.3a7.9,7.9,0,0,0-7.9-7.9Z"/><path class="cls-6" d="M20.5,54.8H59.7s.1-2.2,0-4.6H20.5S20.4,52.5,20.5,54.8Z"/></g></svg>