<svg xmlns="http://www.w3.org/2000/svg" viewBox="0 0 80 80"><defs><style>.cls-1{fill:#fff;}.cls-2{fill:#212121;}.cls-3{fill:#ececec;}.cls-3,.cls-5{stroke:#212121;}.cls-3,.cls-4{stroke-miterlimit:10;}.cls-4,.cls-5{fill:none;}.cls-4{stroke:#1997ce;}</style></defs><title>RS700_03</title><g id="아이콘"><path class="cls-1" d="M17.6,46.7A2.6,2.6,0,0,1,15,44.1V36.9a7.4,7.4,0,0,1,7.4-7.4H46.9a7.4,7.4,0,0,1,7.4,7.4v7.2a2.7,2.7,0,0,1-2.7,2.6Z"/><path class="cls-2" d="M46.9,30a6.9,6.9,0,0,1,6.9,6.9v7.2a2.1,2.1,0,0,1-2.2,2.1h-34a2.1,2.1,0,0,1-2.1-2.1V36.9A6.9,6.9,0,0,1,22.4,30H46.9m0-1H22.4a7.9,7.9,0,0,0-7.9,7.9v7.2a3.1,3.1,0,0,0,3.1,3.1h34a3.2,3.2,0,0,0,3.2-3.1V36.9A7.9,7.9,0,0,0,46.9,29Z"/><path class="cls-3" d="M15,41.4H54.2s.1-2.2,0-4.6H15S14.9,39.1,15,41.4Z"/><path class="cls-4" d="M48.8,25a5.3,5.3,0,0,1,6.9,2.8v.4M47,21.9a9.3,9.3,0,0,1,12.2,5.2c.1.2.1.3.2.4M45.2,18.8A13.8,13.8,0,0,1,63,26.7h0"/><polyline class="cls-5" points="51.7 46.7 62.6 46.7 62.6 55.1 73.6 55.1 73.6 62.1"/><line class="cls-5" x1="6.4" y1="46.7" x2="17.3" y2="46.7"/></g></svg>