<svg xmlns="http://www.w3.org/2000/svg" viewBox="0 0 80 80"><defs><style>.cls-1,.cls-2,.cls-7{fill:none;}.cls-1{stroke:#1997ce;}.cls-1,.cls-5,.cls-7{stroke-miterlimit:10;}.cls-2,.cls-5,.cls-7{stroke:#212121;}.cls-3{fill:#fff;}.cls-4{fill:#212121;}.cls-5,.cls-6{fill:#ececec;}</style></defs><title>RS700_04</title><g id="아이콘"><path class="cls-1" d="M28.4,51.5l2.8,2.8L34,51.5"/><path class="cls-1" d="M31.2,54V42.9"/><path class="cls-1" d="M34,45.5l-2.8-2.8-2.8,2.8"/><line class="cls-2" x1="66.1" y1="54.2" x2="78.4" y2="54.2"/><path class="cls-3" d="M38.8,54.2a1.2,1.2,0,0,1-1.2-1.3V46.2a4,4,0,0,1,4-4H65.7a3.9,3.9,0,0,1,3.9,4v6.7a1.2,1.2,0,0,1-1.2,1.3Z"/><path class="cls-4" d="M65.7,42.7a3.4,3.4,0,0,1,3.4,3.5v6.7a.8.8,0,0,1-.7.8H38.8a.8.8,0,0,1-.7-.8V46.2a3.5,3.5,0,0,1,3.5-3.5H65.7m0-1H41.6a4.5,4.5,0,0,0-4.5,4.5v6.7a1.8,1.8,0,0,0,1.7,1.8H68.4a1.7,1.7,0,0,0,1.7-1.8V46.2a4.5,4.5,0,0,0-4.4-4.5Z"/><path class="cls-5" d="M37.8,49.7H69.4a7,7,0,0,0-.2-2.7H38A7.1,7.1,0,0,0,37.8,49.7Z"/><path class="cls-6" d="M2,42.6H24.5V34.7c-.3-2.6-2.3-2.5-2.3-2.5H1.9Z"/><path class="cls-7" d="M1.9,32.2H22.2a2.4,2.4,0,0,1,2.3,2.5v20"/><line class="cls-7" x1="24" y1="42.6" x2="2" y2="42.6"/><path class="cls-7" d="M1.6,25.3H13.7a2.5,2.5,0,0,1,2.4,2.6v4.8"/></g></svg>