<svg xmlns="http://www.w3.org/2000/svg" viewBox="0 0 80 80"><defs><style>.cls-1{fill:#1997ce;}.cls-1,.cls-2,.cls-3,.cls-4{stroke:#212121;}.cls-1,.cls-2,.cls-3,.cls-4,.cls-5{stroke-miterlimit:10;}.cls-2,.cls-5{fill:none;}.cls-3{fill:#fff;}.cls-4{fill:#ececec;}.cls-5{stroke:#1997ce;}</style></defs><title>RS700_02</title><g id="아이콘"><polygon class="cls-1" points="69.9 28.3 71.6 31.4 74.7 33 71.6 34.7 69.9 37.8 68.2 34.7 65.2 33 68.2 31.4 69.9 28.3"/><polygon class="cls-2" points="73.9 40.3 74.8 42.1 76.6 43 74.8 44 73.9 45.8 72.9 44 71.2 43 72.9 42.1 73.9 40.3"/><circle class="cls-3" cx="18.3" cy="44.5" r="14.9"/><circle class="cls-4" cx="18.3" cy="44.5" r="11.3"/><circle class="cls-1" cx="18.3" cy="44.5" r="1.6"/><circle class="cls-3" cx="48.6" cy="44.5" r="14.9"/><circle class="cls-4" cx="48.6" cy="44.5" r="11.3"/><circle class="cls-1" cx="48.6" cy="44.5" r="1.6"/><path class="cls-5" d="M38.9,23.8a16.6,16.6,0,0,1,23.2,3.6"/><path class="cls-5" d="M57.2,27.3H62V22.5"/><path class="cls-5" d="M38.4,27.6s6.4-6.2,14.9-2.9"/></g></svg>