<svg xmlns="http://www.w3.org/2000/svg" viewBox="0 0 80 80"><defs><style>.cls-1{fill:#1997ce;}.cls-1,.cls-2,.cls-3{stroke:#212121;}.cls-1,.cls-2{stroke-miterlimit:10;}.cls-2{fill:#ececec;}.cls-3{fill:none;}</style></defs><title>RS700_05</title><g id="아이콘"><path class="cls-1" d="M43.5,27.5c-.1-.3-.1-.6-.2-.9-.7-2.6-3.5-6-3.5-6s-2.7,3.4-3.4,6a2.9,2.9,0,0,0-.2.9v.3a3.6,3.6,0,0,0,3.6,3.6,3.7,3.7,0,0,0,3.7-3.6Z"/><path class="cls-1" d="M30.3,28.8a1.4,1.4,0,0,0-.2-.6,13.2,13.2,0,0,0-2.3-4,15.9,15.9,0,0,0-2.3,4c0,.2-.1.4-.1.6V29a2.5,2.5,0,0,0,4.9,0Z"/><path class="cls-1" d="M54.2,28.8a1.3,1.3,0,0,0-.1-.6,15.9,15.9,0,0,0-2.3-4,15.9,15.9,0,0,0-2.3,4,1.3,1.3,0,0,0-.1.6V29a2.4,2.4,0,0,0,2.4,2.4A2.4,2.4,0,0,0,54.2,29Z"/><polyline class="cls-2" points="48.9 41.3 62.1 41.3 69 50.9 40 50.9 11 50.9 17.9 41.3 48.9 41.3"/><line class="cls-3" x1="10" y1="55.9" x2="70" y2="55.9"/><line class="cls-3" x1="10" y1="59.4" x2="70" y2="59.4"/></g></svg>