<svg xmlns="http://www.w3.org/2000/svg" viewBox="0 0 80 80"><defs><style>.cls-1,.cls-5{fill:none;}.cls-1,.cls-4{stroke:#212121;}.cls-2{fill:#fff;}.cls-3{fill:#212121;}.cls-4{fill:#ececec;}.cls-4,.cls-5{stroke-miterlimit:10;}.cls-5{stroke:#1997ce;}</style></defs><title>RS700_06</title><g id="아이콘"><line class="cls-1" x1="9.4" y1="54.9" x2="24.5" y2="54.9"/><path class="cls-2" d="M30.8,54.9a3.4,3.4,0,0,1-3.4-3.4V44.3a8.2,8.2,0,0,1,8.2-8.1H61.9a8.2,8.2,0,0,1,8.2,8.1v7.2a3.4,3.4,0,0,1-3.4,3.4Z"/><path class="cls-3" d="M61.9,36.7a7.6,7.6,0,0,1,7.7,7.6v7.2a2.9,2.9,0,0,1-2.9,2.9H30.8a2.9,2.9,0,0,1-2.9-2.9V44.3a7.7,7.7,0,0,1,7.7-7.6H61.9m0-1H35.6a8.6,8.6,0,0,0-8.7,8.6v7.2a3.9,3.9,0,0,0,3.9,3.9H66.7a3.9,3.9,0,0,0,3.9-3.9V44.3a8.6,8.6,0,0,0-8.7-8.6Z"/><path class="cls-4" d="M28.1,49.1H69.4a.6.6,0,0,0,.6-.6V44.7a.7.7,0,0,0-.7-.6H28.2a.7.7,0,0,0-.7.7v3.6A.7.7,0,0,0,28.1,49.1Z"/><line class="cls-5" x1="25.1" y1="27.6" x2="28.9" y2="34.1"/><line class="cls-5" x1="34.8" y1="24.6" x2="32.9" y2="31.9"/><line class="cls-5" x1="17.6" y1="34.6" x2="24.9" y2="36.5"/></g></svg>