<svg xmlns="http://www.w3.org/2000/svg" viewBox="0 0 80 80"><defs><style>.cls-1,.cls-2,.cls-6{fill:none;}.cls-1{stroke:#1997ce;}.cls-1,.cls-5,.cls-6,.cls-7{stroke-miterlimit:10;}.cls-2,.cls-5,.cls-6,.cls-7{stroke:#212121;}.cls-3{fill:#fff;}.cls-4{fill:#212121;}.cls-5{fill:#ececec;}.cls-7{fill:#1997ce;}</style></defs><title>RS700</title><g id="아이콘"><path class="cls-1" d="M46.4,30.6l3.3,3.2,3.2-3.2"/><path class="cls-1" d="M49.7,33.4V24.8"/><path class="cls-1" d="M36.9,30.6l3.2,3.2,3.2-3.2"/><path class="cls-1" d="M40.1,33.4V20.5"/><path class="cls-1" d="M27.4,30.6l3.2,3.2,3.2-3.2"/><path class="cls-1" d="M30.6,33.4V24.8"/><line class="cls-2" x1="62.3" y1="59.1" x2="76.2" y2="59.1"/><line class="cls-2" x1="3.8" y1="59.1" x2="17.7" y2="59.1"/><path class="cls-3" d="M23.1,59a2.5,2.5,0,0,1-2.6-2.6V49.2a7.4,7.4,0,0,1,7.4-7.4H52.4a7.4,7.4,0,0,1,7.4,7.4v7.2A2.6,2.6,0,0,1,57.1,59Z"/><path class="cls-4" d="M52.4,42.3a6.9,6.9,0,0,1,6.9,6.9v7.2a2.1,2.1,0,0,1-2.2,2.1h-34A2.1,2.1,0,0,1,21,56.4V49.2a6.9,6.9,0,0,1,6.9-6.9H52.4m0-1H27.9A7.9,7.9,0,0,0,20,49.2v7.2a3.1,3.1,0,0,0,3.1,3.1h34a3.2,3.2,0,0,0,3.2-3.1V49.2a7.9,7.9,0,0,0-7.9-7.9Z"/><path class="cls-5" d="M20.5,53.7H59.7s.1-2.2,0-4.6H20.5Z"/><polygon class="cls-6" points="71.9 42 72.7 43.5 74.2 44.3 72.7 45.1 71.9 46.5 71.1 45.1 69.7 44.3 71.1 43.5 71.9 42"/><polygon class="cls-7" points="65.2 33.4 66.7 36.1 69.5 37.6 66.7 39.1 65.2 41.9 63.7 39.1 61 37.6 63.7 36.1 65.2 33.4"/></g></svg>