<?xml version="1.0" standalone="no"?>
<!DOCTYPE svg PUBLIC "-//W3C//DTD SVG 20010904//EN"
 "http://www.w3.org/TR/2001/REC-SVG-20010904/DTD/svg10.dtd">
<svg version="1.0" xmlns="http://www.w3.org/2000/svg"
 width="260.000000pt" height="260.000000pt" viewBox="0 0 260.000000 260.000000"
 preserveAspectRatio="xMidYMid meet">
<metadata>
Created by potrace 1.11, written by Peter Selinger 2001-2013
</metadata>
<g transform="translate(0.000000,260.000000) scale(0.100000,-0.100000)"
fill="#000000" stroke="none">
<path d="M0 1300 l0 -1300 1300 0 1300 0 0 1300 0 1300 -1300 0 -1300 0 0
-1300z m1248 393 l-3 -98 -452 -3 -453 -2 0 100 0 100 455 0 456 0 -3 -97z
m812 81 c78 -23 162 -109 186 -189 23 -80 15 -158 -24 -230 l-30 -55 30 -55
c39 -72 47 -150 24 -230 -14 -46 -29 -70 -75 -116 -88 -87 -98 -89 -493 -89
l-329 0 3 98 3 97 331 5 c361 5 354 4 374 65 14 42 -8 96 -46 114 -17 7 -127
11 -344 11 l-320 0 0 100 0 100 324 0 c315 0 324 1 350 21 38 30 49 64 36 105
-20 60 -14 59 -374 64 l-331 5 -3 98 -3 97 329 0 c271 0 338 -3 382 -16z
m-810 -474 l0 -100 -455 0 -455 0 0 100 0 100 455 0 455 0 0 -100z m-2 -392
l3 -98 -456 0 -455 0 0 100 0 100 453 -2 452 -3 3 -97z"/>
</g>
</svg>
