<?xml version="1.0" encoding="utf-8"?>
<!-- Generator: Adobe Illustrator 23.0.4, SVG Export Plug-In . SVG Version: 6.00 Build 0)  -->
<svg version="1.1" id="Layer_1" xmlns="http://www.w3.org/2000/svg" xmlns:xlink="http://www.w3.org/1999/xlink" x="0px" y="0px"
	 viewBox="0 0 24 24" enable-background="new 0 0 24 24" xml:space="preserve">
<g>
	<path fill="none" stroke="#ffffff" d="M3.563,16.423l-1.795,0V3.424h17.96v12.999H8.206v0.001l-4.642,4.152v-4.151L3.563,16.423z"
		/>
	<path fill="none" stroke="#ffffff" d="M10.019,19.263h12.213V7.769"/>
	<g enable-background="new    ">
		<path fill="#ffffff" d="M5.757,7.996h2.295v0.619h-1.55v0.971h1.323v0.624H6.502v1.51H5.757L5.757,7.996z"/>
		<path fill="#ffffff" d="M10.224,10.764H9.017L8.755,11.72H8.001l1.193-3.723h0.876l1.198,3.723h-0.78L10.224,10.764z
			 M10.064,10.185L9.953,9.777C9.837,9.39,9.737,8.963,9.626,8.56h-0.02C9.51,8.968,9.4,9.39,9.289,9.777l-0.111,0.407H10.064z"/>
		<path fill="#ffffff" d="M14.947,12.621c-0.126,0.06-0.352,0.11-0.624,0.11c-0.759,0-1.288-0.407-1.544-0.971
			c-0.795-0.151-1.323-0.855-1.323-1.917c0-1.213,0.68-1.917,1.665-1.917c0.986,0,1.665,0.709,1.665,1.917
			c0,1.016-0.483,1.7-1.222,1.892c0.17,0.282,0.508,0.398,0.845,0.398c0.162,0,0.302-0.025,0.407-0.06L14.947,12.621z M13.12,11.181
			c0.554,0,0.906-0.503,0.906-1.338c0-0.8-0.352-1.278-0.906-1.278c-0.553,0-0.906,0.478-0.906,1.278
			C12.215,10.678,12.568,11.181,13.12,11.181z"/>
	</g>
</g>
</svg>
