<svg id="Layer_1" data-name="Layer 1" xmlns="http://www.w3.org/2000/svg" viewBox="0 0 22.5 20.87"><defs><style>.cls-1{fill:#858585;}</style></defs><title>SNS_blog_main</title><circle class="cls-1" cx="4.91" cy="8.48" r="0.77"/><circle class="cls-1" cx="12.56" cy="8.45" r="0.83"/><path class="cls-1" d="M20.24,1.57H3.76a3,3,0,0,0-3,3v9.78a3,3,0,0,0,3,3H9.58l2,4.66s.14.4.47.4h0c.33,0,.47-.4.47-.4l2-4.66h5.77a3,3,0,0,0,3-3V4.58A3,3,0,0,0,20.24,1.57ZM7.82,10.21A1.86,1.86,0,0,1,6,12.05a1.55,1.55,0,0,1-1.12-.47v.32H3.5V6.35s0,0,0,0h0c.08,0,1.35,0,1.35,0V8.47c.32-.54,1.23-.53,1.23-.53A2,2,0,0,1,7.82,10.21Zm2.37-2.1v3.8H8.87V8.14c0-.51-.64-.65-.64-.65V6.16A1.82,1.82,0,0,1,10.19,8.11Zm3.12,3.95a2.13,2.13,0,0,1-2.21-2,2.13,2.13,0,0,1,2.21-2,2.13,2.13,0,0,1,2.21,2A2.13,2.13,0,0,1,13.31,12.05Zm7.22,0A1.88,1.88,0,0,1,18.59,14H18V12.73h.36s.82.08.82-1.19c0,0-.16.51-1.32.51a1.74,1.74,0,0,1-1.64-1.72V9.73A1.87,1.87,0,0,1,18,7.94a1.34,1.34,0,0,1,1.15.51V8h1.34Z" transform="translate(-0.75 -1.57)"/><circle class="cls-1" cx="17.69" cy="8.45" r="0.82"/></svg>