<?xml version="1.0" encoding="utf-8"?>
<!-- Generator: Adobe Illustrator 24.2.3, SVG Export Plug-In . SVG Version: 6.00 Build 0)  -->
<svg version="1.0" id="Layer_1" xmlns="http://www.w3.org/2000/svg" xmlns:xlink="http://www.w3.org/1999/xlink" x="0px" y="0px"
	 viewBox="0 0 85.04 85.04" style="enable-background:new 0 0 85.04 85.04;" xml:space="preserve">
<style type="text/css">
	.st0{fill:#FFFFFF;}
	.st1{fill:#FFFFFF;stroke:#00A1DF;stroke-width:2;stroke-linecap:round;stroke-linejoin:round;}
	.st2{fill:#FFFFFF;stroke:#050303;stroke-width:2;stroke-linecap:round;stroke-linejoin:round;}
	.st3{fill:none;stroke:#050303;stroke-width:2;stroke-linecap:round;stroke-linejoin:round;}
</style>
<g>
	<rect x="19.61" y="29.94" class="st0" width="42.12" height="32.19"/>
	<g>
		<path class="st1" d="M35.58,8.04c4.1,2.66,5.09,9.48,5.09,9.48s-5.33,0.93-9.54-1.56c-3.42-2.03-5.29-5.53-4.53-7.33
			C27.43,6.65,31.47,5.38,35.58,8.04z"/>
		<path class="st1" d="M46.47,8.04c-4.1,2.66-5.09,9.48-5.09,9.48s5.33,0.93,9.54-1.56c3.42-2.03,5.29-5.53,4.53-7.33
			C54.62,6.65,50.57,5.38,46.47,8.04z"/>
	</g>
	<rect x="16.44" y="18.29" class="st2" width="49.17" height="11.33"/>
	<g>
		<line class="st3" x1="62.43" y1="29.94" x2="62.43" y2="56.1"/>
		<line class="st3" x1="19.61" y1="58.22" x2="19.61" y2="29.94"/>
	</g>
	<line class="st3" x1="41.02" y1="19.35" x2="41.02" y2="51.87"/>
	<path class="st2" d="M11.38,64.3l12.04-9.34c3.61-2.8,8.23-3.92,12.72-3.09l13.19,2.44c2.69,0.2,4.64,2.75,3.99,5.49
		c-0.51,2.15-2.67,3.51-4.87,3.35L36.97,62.3l0.01,0.03l10.65,0.77c3.41,0.25,6.79-0.79,9.47-2.9l9.9-7.79
		c1.79-1.41,4.39-1.09,5.79,0.71l0,0c1.39,1.79,1.06,4.37-0.73,5.77l-13,10.08c-3.86,3-8.58,4.67-13.47,4.79l-14.63,0.35
		c-1.92,0.06-3.77,0.72-5.29,1.89l-3.33,2.52L11.38,64.3z"/>
</g>
</svg>
