<svg id="_Layer_" data-name="&lt;Layer&gt;" xmlns="http://www.w3.org/2000/svg" viewBox="0 0 680 680"><defs><style>.cls-1{fill:#00a1df;}.cls-2{fill:#fff;stroke:#fff;stroke-miterlimit:10;stroke-width:10px;}</style></defs><title>customer</title><circle class="cls-1" cx="340" cy="340" r="340"/><path class="cls-2" d="M1874,2162.61h-52.67a32.07,32.07,0,0,1-32-32v-81.81a32.07,32.07,0,0,1,32-32H1874a32.07,32.07,0,0,1,32,32v81.81A32.07,32.07,0,0,1,1874,2162.61Zm-52.67-122a8.14,8.14,0,0,0-8.13,8.13v81.81a8.14,8.14,0,0,0,8.13,8.13H1874a8.14,8.14,0,0,0,8.13-8.13v-81.81a8.14,8.14,0,0,0-8.13-8.13Z" transform="translate(-1661.7 -1720.05)"/><path class="cls-2" d="M2018.17,2303.82h-32.93a32.06,32.06,0,0,1-32-32v-18.11a32.05,32.05,0,0,1,32-32h32.93a32.06,32.06,0,0,1,32,32v18.11A32.07,32.07,0,0,1,2018.17,2303.82Zm-32.93-58.26a8.13,8.13,0,0,0-8.12,8.12v18.11a8.13,8.13,0,0,0,8.12,8.13h32.93a8.13,8.13,0,0,0,8.12-8.13v-18.11a8.13,8.13,0,0,0-8.12-8.12Z" transform="translate(-1661.7 -1720.05)"/><path class="cls-2" d="M2214.12,2054.37h-23.9v-25.68c0-103.94-84.57-188.51-188.52-188.51s-188.51,84.57-188.51,188.51v25.68h-23.9v-25.68a212.42,212.42,0,0,1,424.83,0Z" transform="translate(-1661.7 -1720.05)"/><path class="cls-2" d="M2182.09,2162.61h-52.67a32.07,32.07,0,0,1-32-32v-81.81a32.07,32.07,0,0,1,32-32h52.67a32.07,32.07,0,0,1,32,32v81.81A32.07,32.07,0,0,1,2182.09,2162.61Zm-52.67-122a8.14,8.14,0,0,0-8.13,8.13v81.81a8.14,8.14,0,0,0,8.13,8.13h52.67a8.14,8.14,0,0,0,8.13-8.13v-81.81a8.14,8.14,0,0,0-8.13-8.13Z" transform="translate(-1661.7 -1720.05)"/><path class="cls-2" d="M2128.35,2274.69h-90.11v-23.9h90.11a61.94,61.94,0,0,0,61.87-61.87v-73.33h23.9v73.33A85.87,85.87,0,0,1,2128.35,2274.69Z" transform="translate(-1661.7 -1720.05)"/></svg>