<?xml version="1.0" encoding="utf-8"?>
<!-- Generator: Adobe Illustrator 24.2.3, SVG Export Plug-In . SVG Version: 6.00 Build 0)  -->
<svg version="1.0" id="Layer_1" xmlns="http://www.w3.org/2000/svg" xmlns:xlink="http://www.w3.org/1999/xlink" x="0px" y="0px"
	 viewBox="0 0 85.04 85.04" style="enable-background:new 0 0 85.04 85.04;" xml:space="preserve">
<style type="text/css">
	.st0{fill:#FFFFFF;stroke:#050303;stroke-width:2;stroke-linecap:round;stroke-linejoin:round;}
	.st1{fill:none;stroke:#050303;stroke-width:2;stroke-linecap:round;stroke-linejoin:round;}
	.st2{fill:#FFFFFF;stroke:#00A1DF;stroke-width:2;stroke-linecap:round;stroke-linejoin:round;}
	.st3{fill:none;stroke:#050303;stroke-width:2;}
</style>
<g>
	<g>
		<polygon class="st0" points="31.4,8.53 69.77,8.53 69.77,76.51 15.27,76.51 15.27,23.59 		"/>
		<polyline class="st1" points="31.4,8.53 31.4,23.59 15.27,23.59 		"/>
	</g>
	<g>
		<path class="st2" d="M53.93,37.78c0-6.83-6.5-12.2-13.88-10.71c-4.38,0.88-7.89,4.34-8.72,8.57c-0.75,3.77,0.53,7.23,2.95,9.65
			c1.74,1.74,2.87,3.96,2.87,6.37v3.56H47.9v-3.56c0-2.42,1.13-4.64,2.87-6.38C52.72,43.34,53.93,40.7,53.93,37.78z"/>
		<g>
			<line class="st3" x1="38.31" y1="59.1" x2="46.73" y2="59.1"/>
			<line class="st3" x1="38.9" y1="63.06" x2="46.14" y2="63.06"/>
			<path class="st3" d="M45.18,66c-0.5,0.96-1.53,1.62-2.72,1.62c-1.19,0-2.22-0.66-2.72-1.62"/>
		</g>
		<path class="st3" d="M35.92,35.14c0.86-2.04,2.72-3.59,5-4.08"/>
	</g>
</g>
</svg>
