<?xml version="1.0" encoding="utf-8"?>
<!-- Generator: Adobe Illustrator 23.0.4, SVG Export Plug-In . SVG Version: 6.00 Build 0)  -->
<svg version="1.1" id="Capa_1" xmlns="http://www.w3.org/2000/svg" xmlns:xlink="http://www.w3.org/1999/xlink" x="0px" y="0px"
	 viewBox="0 0 480 480" style="enable-background:new 0 0 480 480;" xml:space="preserve">
<style type="text/css">
	.st0{opacity:0.5;}
</style>
<g class="st0">
	<g>
		<path d="M88,288c-22.1,0-40,17.9-40,40s17.9,40,40,40s40-17.9,40-40S110.1,288,88,288z M88,352c-13.2,0-24-10.8-24-24
			s10.8-24,24-24s24,10.8,24,24S101.2,352,88,352z"/>
	</g>
</g>
<g class="st0">
	<g>
		<path d="M240,32c-22.1,0-40,17.9-40,40s17.9,40,40,40s40-17.9,40-40S262.1,32,240,32z M240,96c-13.2,0-24-10.8-24-24
			s10.8-24,24-24s24,10.8,24,24S253.2,96,240,96z"/>
	</g>
</g>
<g class="st0">
	<g>
		<path d="M384,200c-13.2,0-24,10.8-24,24s10.8,24,24,24s24-10.8,24-24S397.2,200,384,200z M384,232c-4.4,0-8-3.6-8-8s3.6-8,8-8
			s8,3.6,8,8S388.4,232,384,232z"/>
	</g>
</g>
<g class="st0">
	<g>
		<path d="M476.7,321.5l-66.3-48.2c17.6-9.5,29.6-28,29.6-49.3c0-26.3-18.3-48.4-42.8-54.4L310.9,59.8C305.1,25.9,275.5,0,240,0
			c-35.6,0-65.2,26-70.9,60l0,0L49.5,267.3C29.4,280.1,16,302.5,16,328c0,17.1,6,32.8,16,45.2v43.7C13.8,420.5,0,436.7,0,456v16
			c0,4.4,3.6,8,8,8h160c4.4,0,8-3.6,8-8v-16c0-19.3-13.8-35.5-32-39.2v-43.7c10-12.4,16-28.1,16-45.2c0-1.9-0.1-3.7-0.3-5.6
			l85.5-178.7c2.2-0.2,4.3-0.4,6.4-0.8l76.6,84.3c1.2,19.9,12.7,37.1,29.4,46.1l-66.3,48.2c-2.1,1.5-3.3,3.9-3.3,6.5v88
			c0,2.4,1.1,4.7,3,6.2l37,29.6V472c0,4.4,3.6,8,8,8h96c4.4,0,8-3.6,8-8v-20.2l37-29.6c1.9-1.5,3-3.8,3-6.2v-88
			C480,325.4,478.8,323,476.7,321.5z M160,456v8H16v-8c0-13.2,10.8-24,24-24h96C149.2,432,160,442.8,160,456z M48,416v-28.2
			c11.4,7.7,25.2,12.2,40,12.2s28.6-4.5,40-12.2V416H48z M88,384c-30.9,0-56-25.1-56-56s25.1-56,56-56s56,25.1,56,56
			S118.9,384,88,384z M153.5,298.3C142.2,273.4,117.1,256,88,256c-4.9,0-9.7,0.5-14.4,1.4l96.7-167.6c7,27.2,29.5,48.2,57.5,53
			L153.5,298.3z M240,128c-30.9,0-56-25.1-56-56s25.1-56,56-56s56,25.1,56,56S270.9,128,240,128z M330.9,206.4L268.6,138
			c21.5-9.4,37.6-28.9,42-52.6l65.4,83.2C354.8,171.7,337.4,186.6,330.9,206.4z M344,224c0-22.1,17.9-40,40-40s40,17.9,40,40
			c0,20.4-15.4,37.1-35.2,39.5c-3.2,0.4-6.4,0.4-9.6,0C359.4,261.1,344,244.4,344,224z M424,448v16h-80v-16v-64h80V448z M424,368
			h-80v-19.7l40-26.7l40,26.7V368z M464,412.2l-24,19.2V376v-32c0-2.7-1.3-5.2-3.6-6.7l-48-32c-1.3-0.9-2.9-1.3-4.4-1.3
			s-3.1,0.4-4.4,1.3l-48,32c-2.2,1.5-3.6,4-3.6,6.7v32v55.4l-24-19.2v-80.1l72.3-52.6c0.3,0,0.5,0,0.8,0.1c2.3,0.3,4.6,0.5,6.9,0.5
			s4.6-0.2,6.9-0.5c0.3,0,0.5,0,0.8-0.1l72.3,52.6V412.2z"/>
	</g>
</g>
<g class="st0">
	<g>
		<rect x="360" y="400" width="16" height="16"/>
	</g>
</g>
<g class="st0">
	<g>
		<rect x="392" y="400" width="16" height="16"/>
	</g>
</g>
<g class="st0">
	<g>
		<rect x="360" y="432" width="16" height="16"/>
	</g>
</g>
<g class="st0">
	<g>
		<rect x="392" y="432" width="16" height="16"/>
	</g>
</g>
</svg>
