<?xml version="1.0" encoding="utf-8"?>
<!-- Generator: Adobe Illustrator 24.2.1, SVG Export Plug-In . SVG Version: 6.00 Build 0)  -->
<svg version="1.0" id="Layer_1" xmlns="http://www.w3.org/2000/svg" xmlns:xlink="http://www.w3.org/1999/xlink" x="0px" y="0px"
	 viewBox="0 0 113.39 113.39" style="enable-background:new 0 0 113.39 113.39;" xml:space="preserve">
<style type="text/css">
	.st0{fill:none;stroke:#050303;stroke-width:2;stroke-linejoin:round;}
	.st1{fill:none;stroke:#00A1DF;stroke-width:2;stroke-linejoin:round;}
</style>
<g>
	<path class="st0" d="M63.18,52.52h9.78c-0.71-0.71-1.12-1.67-1.12-2.75c0-2.19,1.75-3.94,3.94-3.94c2.19,0,3.94,1.75,3.94,3.94
		c0,1.08-0.41,2.05-1.12,2.75h7.55c-1.12,3.57-3.05,6.73-5.58,9.37c-3.65,3.83-6.06,8.7-6.06,14.02v7.81"/>
	<path class="st0" d="M63.18,66.69c0.71,0.71,1.71,1.15,2.79,1.15c2.19,0,3.94-1.75,3.94-3.94c0-2.19-1.75-3.94-3.94-3.94
		c-1.08,0-2.08,0.45-2.79,1.15"/>
	<path class="st0" d="M78.62,52.52c0.71-0.71,1.12-1.67,1.12-2.75c0-2.19-1.75-3.94-3.94-3.94c-2.19,0-3.94,1.75-3.94,3.94
		c0,1.08,0.41,2.05,1.12,2.75"/>
	<path class="st0" d="M63.18,52.52V39.94c0.71,0.71,1.71,1.15,2.79,1.15c2.19,0,3.94-1.75,3.94-3.94c0-2.19-1.75-3.94-3.94-3.94
		c-1.08,0-2.08,0.45-2.79,1.15V21.3c13.28,0,24.07,10.79,24.07,24.07c0,2.49-0.37,4.91-1.08,7.14"/>
	<g>
		<path class="st0" d="M75.43,90.84h-24.5c-1.96,0-3.55-1.59-3.55-3.55l0,0c0-1.96,1.59-3.55,3.55-3.55h24.5
			c1.96,0,3.55,1.59,3.55,3.55l0,0C78.99,89.25,77.4,90.84,75.43,90.84z"/>
		<path class="st0" d="M73.77,90.84c1.96,0,3.55,1.59,3.55,3.55l0,0c0,1.96-1.59,3.55-3.55,3.55H52.59c-1.96,0-3.55-1.59-3.55-3.55
			l0,0c0-1.96,1.59-3.55,3.55-3.55"/>
		<path class="st0" d="M70.78,97.94L70.78,97.94c0,3.93-3.18,7.11-7.11,7.11h-0.98c-3.93,0-7.11-3.18-7.11-7.11v0"/>
	</g>
	<path class="st0" d="M51.84,83.73v-7.81c0-5.32-2.38-10.19-6.06-14.02c-2.53-2.6-4.46-5.8-5.58-9.37h7.55
		c-0.71-0.71-1.12-1.67-1.12-2.75c0-2.19,1.75-3.94,3.94-3.94c2.19,0,3.94,1.75,3.94,3.94c0,1.08-0.41,2.05-1.12,2.75h9.78v8.59
		c0.71-0.71,1.71-1.15,2.79-1.15c2.19,0,3.94,1.75,3.94,3.94c0,2.19-1.75,3.94-3.94,3.94c-1.08,0-2.08-0.45-2.79-1.15v17.04"/>
	<g>
		<path class="st1" d="M56.94,24.18c0,2.19-1.75,3.94-3.94,3.94c-1.08,0-2.08-0.45-2.79-1.15v12.57h-9.78
			c0.71-0.71,1.12-1.67,1.12-2.75c0-2.19-1.75-3.94-3.94-3.94c-2.19,0-3.94,1.75-3.94,3.94c0,1.08,0.41,2.05,1.12,2.75h-7.55
			c-0.04-0.07-0.04-0.19-0.07-0.26c-1.08-3.57-1.34-7.48-0.56-11.57c1.75-9.3,9.15-16.89,18.41-18.82c1.75-0.37,3.5-0.56,5.21-0.56
			v13.06c0.71-0.71,1.71-1.15,2.79-1.15C55.2,20.24,56.94,21.99,56.94,24.18z"/>
	</g>
</g>
</svg>
