<?xml version="1.0" encoding="utf-8"?>
<!-- Generator: Adobe Illustrator 23.0.4, SVG Export Plug-In . SVG Version: 6.00 Build 0)  -->
<svg version="1.1" id="Layer_1" xmlns="http://www.w3.org/2000/svg" xmlns:xlink="http://www.w3.org/1999/xlink" x="0px" y="0px"
	 viewBox="0 0 140 140" style="enable-background:new 0 0 140 140;" xml:space="preserve">
<style type="text/css">
	.st0{fill:none;stroke:#040000;stroke-width:2.5;}
	.st1{fill:#FFFFFF;stroke:#040000;stroke-width:2.5;stroke-linecap:round;stroke-linejoin:round;}
	.st2{fill:none;stroke:#040000;stroke-width:2.5;stroke-linejoin:round;}
</style>
<g>
	<ellipse class="st0" cx="70" cy="111.3" rx="26.5" ry="6.5"/>
	<g>
		<g>
			<path class="st1" d="M88.8,79C88.8,79,88.8,79,88.8,79c7.7-5.8,12.8-14.9,12.8-25.3c0-17.4-14.1-31.5-31.5-31.5
				c-17.4,0-31.5,14.1-31.5,31.5c0,10.4,5,19.6,12.8,25.3l0,0c0,0,6.4,5.4,7.3,10.3h23C82.3,84.4,88.8,79,88.8,79z"/>
			<path class="st1" d="M58.6,99.3c0,6.3,5.1,11.4,11.4,11.4c6.3,0,11.4-5.1,11.4-11.4v-1.1H58.6V99.3z"/>
			<path class="st1" d="M81.4,90.3c0-0.3,0-0.7,0.1-1h-23c0.1,0.3,0.1,0.6,0.1,1v8h22.7v-7.5C81.4,90.6,81.4,90.5,81.4,90.3z"/>
		</g>
		<g>
			<line class="st2" x1="55.6" y1="56.2" x2="55.6" y2="69.4"/>
			<line class="st2" x1="62.8" y1="51.6" x2="62.8" y2="69.4"/>
			<line class="st2" x1="70" y1="47" x2="70" y2="69.4"/>
			<line class="st2" x1="77.2" y1="42.4" x2="77.2" y2="69.4"/>
			<line class="st2" x1="84.4" y1="37.8" x2="84.4" y2="69.4"/>
		</g>
	</g>
</g>
</svg>
