<?xml version="1.0" encoding="utf-8"?>
<!-- Generator: Adobe Illustrator 23.0.4, SVG Export Plug-In . SVG Version: 6.00 Build 0)  -->
<svg version="1.1" id="Layer_1_1_" xmlns="http://www.w3.org/2000/svg" xmlns:xlink="http://www.w3.org/1999/xlink" x="0px" y="0px"
	 viewBox="0 0 512 512" style="enable-background:new 0 0 512 512;" xml:space="preserve">
<style type="text/css">
	.st0{opacity:0.5;}
</style>
<path class="st0" d="M392,256c0-75-61-136-136-136s-136,61-136,136c0,41.4,18.7,78.5,48,103.5v45.2l-37.7,37.7
	c-1.5,1.5-2.3,3.5-2.3,5.7v16h16v-12.7l37.7-37.7c1.5-1.5,2.3-3.5,2.3-5.7v-36.8c7.5,4.7,15.6,8.7,24,11.9v37.6l-21.7,21.7
	c-1.5,1.5-2.3,3.5-2.3,5.7v16h16v-12.7l21.7-21.7c1.5-1.5,2.3-3.5,2.3-5.7v-36c7.8,1.9,15.8,3.1,24,3.6V464h16v-72.4
	c8.2-0.5,16.2-1.7,24-3.6v36c0,2.1,0.8,4.2,2.3,5.7l21.7,21.7V464h16v-16c0-2.1-0.8-4.2-2.3-5.7L304,420.7v-37.6
	c8.4-3.2,16.5-7.2,24-11.9V408c0,2.1,0.8,4.2,2.3,5.7l37.7,37.7V464h16v-16c0-2.1-0.8-4.2-2.3-5.7L344,404.7v-45.2
	C373.3,334.5,392,297.4,392,256z M256,136c14.2,0,29.5,19.4,38.9,51.2c-25.6,5.2-52.1,5.2-77.7,0C226.5,155.4,241.8,136,256,136z
	 M256,207.1c14.3,0,28.6-1.5,42.7-4.4c2.8,13.6,4.7,28.8,5.1,45.3h-95.6c0.5-16.5,2.3-31.7,5.1-45.3
	C227.4,205.6,241.7,207.1,256,207.1L256,207.1z M319.8,264h55.8c-1.6,23.9-10.2,45.8-23.7,63.9c-12.1-6.2-24.7-11.1-37.6-14.8
	C317.4,298.1,319.4,281.5,319.8,264z M298.7,309.3c-28.1-5.7-57.3-5.7-85.4,0c-2.8-13.6-4.7-28.8-5.1-45.3h95.6
	C303.4,280.5,301.5,295.7,298.7,309.3z M319.8,248c-0.5-17.5-2.4-34.1-5.6-49.1c12.9-3.7,25.5-8.6,37.6-14.8
	c13.6,18.1,22.1,40,23.7,63.9L319.8,248L319.8,248z M192.2,248h-55.8c1.6-23.9,10.2-45.8,23.7-63.9c12.1,6.2,24.7,11.1,37.6,14.8
	C194.6,213.9,192.6,230.5,192.2,248z M192.2,264c0.5,17.5,2.4,34.1,5.6,49.1c-12.9,3.7-25.5,8.6-37.6,14.8
	c-13.6-18.1-22.1-40-23.7-63.9H192.2z M201.7,328.6c5,17.1,11.7,31.5,19.7,42.3c-19.4-5.8-36.7-16.4-50.6-30.5
	C180.8,335.5,191.1,331.6,201.7,328.6L201.7,328.6z M217.1,324.8c25.6-5.2,52.1-5.2,77.7,0c-9.4,31.8-24.6,51.2-38.9,51.2
	S226.5,356.6,217.1,324.8L217.1,324.8z M310.3,328.6c10.6,3,20.9,6.9,30.9,11.8c-13.9,14-31.2,24.6-50.6,30.5
	C298.6,360.1,305.3,345.7,310.3,328.6L310.3,328.6z M341.2,171.6c-10,4.8-20.3,8.7-30.9,11.8c-5-17.1-11.7-31.5-19.7-42.3
	C310,147,327.3,157.6,341.2,171.6z M221.4,141.1c-8,10.8-14.7,25.2-19.7,42.3c-10.6-3-20.9-6.9-30.9-11.8
	C184.7,157.6,202,147,221.4,141.1z"/>
<path class="st0" d="M368,480h16v16h-16V480z"/>
<path class="st0" d="M312,480h16v16h-16V480z"/>
<path class="st0" d="M128,480h16v16h-16V480z"/>
<path class="st0" d="M184,480h16v16h-16V480z"/>
<path class="st0" d="M248,480h16v16h-16V480z"/>
<path class="st0" d="M227.7,98.3l11.3,11.3c9.4-9.4,24.6-9.4,33.9,0l11.3-11.3C268.7,82.8,243.3,82.8,227.7,98.3z"/>
<path class="st0" d="M309.4,74.3c-29.5-29.5-77.4-29.5-106.9,0l11.3,11.3c23.2-23.2,61-23.2,84.3,0L309.4,74.3z"/>
<path class="st0" d="M322.3,61.7l11.3-11.3c-42.8-42.8-112.5-42.8-155.3,0l11.3,11.3C226.2,25.1,285.8,25.1,322.3,61.7z"/>
<path class="st0" d="M98.3,227.7c-15.6,15.6-15.6,41,0,56.6l11.3-11.3c-9.4-9.4-9.4-24.6,0-33.9L98.3,227.7z"/>
<path class="st0" d="M74.3,202.6c-29.5,29.5-29.5,77.4,0,106.9l11.3-11.3c-23.2-23.2-23.2-61,0-84.3L74.3,202.6z"/>
<path class="st0" d="M61.7,189.7l-11.3-11.3c-42.8,42.8-42.8,112.5,0,155.3l11.3-11.3C25.1,285.8,25.1,226.2,61.7,189.7L61.7,189.7z
	"/>
<path class="st0" d="M402.3,239c9.4,9.4,9.4,24.6,0,33.9l11.3,11.3c15.6-15.6,15.6-41,0-56.6L402.3,239z"/>
<path class="st0" d="M437.7,202.6l-11.3,11.3c23.2,23.2,23.2,61,0,84.3l11.3,11.3C467.1,280,467.1,232,437.7,202.6z"/>
<path class="st0" d="M461.7,178.3l-11.3,11.3c36.6,36.6,36.6,96.1,0,132.7l11.3,11.3C504.5,290.8,504.5,221.2,461.7,178.3
	L461.7,178.3z"/>
</svg>
