<svg id="Layer_10" data-name="Layer 10" xmlns="http://www.w3.org/2000/svg" viewBox="0 0 129.51 77.45"><defs><style>.cls-1,.cls-2,.cls-4{fill:#fff;}.cls-1{stroke:#191919;stroke-linejoin:round;}.cls-1,.cls-2{stroke-linecap:round;}.cls-1,.cls-2,.cls-3,.cls-4,.cls-5{stroke-width:2.5px;}.cls-2,.cls-3{stroke:#000;}.cls-3,.cls-5{fill:none;}.cls-4,.cls-5{stroke:#1e1e1e;}</style></defs><title>empty</title><rect class="cls-1" x="15.6" y="21.72" width="71.32" height="49.82"/><rect class="cls-1" x="8.25" y="69.39" width="86.01" height="6.81"/><path class="cls-1" d="M706.12,660.85h5.51v11.83h-5.51a4,4,0,0,1-4-4v-3.81A4,4,0,0,1,706.12,660.85Z" transform="translate(-679.17 -603.38)"/><path class="cls-1" d="M723.55,660.85a4,4,0,0,1,4,4v3.81a4,4,0,0,1-4,4H718V660.85Z" transform="translate(-679.17 -603.38)"/><rect class="cls-1" x="32.46" y="57.47" width="6.42" height="11.83"/><path class="cls-2" d="M798.36,668.1a5.31,5.31,0,1,0,7.51-7.52l-5-5-7.51,7.51Z" transform="translate(-679.17 -603.38)"/><path class="cls-2" d="M780.19,634.9a5.31,5.31,0,1,0-7.51,7.51l14.41,14.42,7.52-7.51Z" transform="translate(-679.17 -603.38)"/><rect class="cls-2" x="788.69" y="651.77" width="10.62" height="8.91" transform="translate(-910.65 150.11) rotate(-44.99)"/><path class="cls-2" d="M780.43,611.16a22.27,22.27,0,1,1-31.5,0A22.27,22.27,0,0,1,780.43,611.16Z" transform="translate(-679.17 -603.38)"/><line class="cls-3" x1="80.85" y1="14.69" x2="90.36" y2="14.69"/><line class="cls-3" x1="80.85" y1="23.25" x2="90.36" y2="23.25"/><line class="cls-3" x1="80.85" y1="31.81" x2="90.36" y2="31.81"/><rect class="cls-4" x="1.25" y="7.9" width="46.1" height="6.96"/><rect class="cls-4" x="1.25" y="14.86" width="46.1" height="31.75"/><line class="cls-5" x1="9.51" y1="23.13" x2="13.12" y2="23.13"/><line class="cls-5" x1="9.51" y1="30.08" x2="13.12" y2="30.08"/><line class="cls-5" x1="9.51" y1="37.05" x2="13.12" y2="37.05"/><rect class="cls-5" x="17.45" y="22.26" width="21.64" height="15.66"/></svg>