<?xml version="1.0" encoding="utf-8"?>
<!-- Generator: Adobe Illustrator 23.0.4, SVG Export Plug-In . SVG Version: 6.00 Build 0)  -->
<svg version="1.1" id="Layer_1" xmlns="http://www.w3.org/2000/svg" xmlns:xlink="http://www.w3.org/1999/xlink" x="0px" y="0px"
	 viewBox="0 0 62 62" enable-background="new 0 0 62 62" xml:space="preserve">
<g>
	<g>
		<path fill="#FFFFFF" d="M50.481,55.606H14.048c0,0-5.687,0.619-6.02-4.663V12.691c0,0,0.619-5.272-4.7-6.325h42.647
			c0,0,4.681,0.305,4.515,6.518v31.973"/>
		<path fill="#30323B" d="M13.504,56.547c-1.006,0-2.991-0.185-4.506-1.45c-1.154-0.969-1.791-2.345-1.902-4.09V12.7
			c0-0.037,0-0.074,0.009-0.111c0.046-0.452,0.36-4.459-3.961-5.309C2.683,7.188,2.359,6.764,2.406,6.284
			c0.046-0.471,0.443-0.831,0.923-0.831h42.647c0.12,0.009,5.623,0.452,5.438,7.469v31.955c0,0.508-0.415,0.923-0.923,0.923
			c-0.508,0-0.923-0.415-0.923-0.923V12.894c0.138-5.143-3.268-5.567-3.656-5.604H7.114c1.671,1.68,1.994,4.026,1.847,5.457v38.196
			c0.074,1.182,0.48,2.096,1.246,2.742c1.45,1.219,3.73,1.006,3.749,1.006c0.037,0,0.065-0.009,0.102-0.009h36.424
			c0.508,0,0.923,0.415,0.923,0.923c0,0.508-0.415,0.923-0.923,0.923H14.085C13.993,56.538,13.79,56.547,13.504,56.547z"/>
	</g>
	<g>
		<path fill="#EBECEF" d="M50.638,55.606H12.599c0,0,3.038,0.462,3.518-5.743h37.716C53.833,49.863,54.47,54.673,50.638,55.606z"/>
		<path fill="#30323B" d="M12.737,56.538c-0.185,0-0.286-0.018-0.286-0.018c-0.471-0.083-0.812-0.517-0.766-0.997
			c0.046-0.471,0.425-0.84,0.905-0.84h0.259c0.96-0.12,2.077-1.468,2.345-4.893c0.037-0.48,0.434-0.849,0.923-0.849h37.716
			c0.462,0,0.859,0.342,0.914,0.803c0.259,1.948-0.222,5.872-3.896,6.768c-0.074,0.018-0.148,0.028-0.222,0.028H12.94
			C12.866,56.538,12.802,56.538,12.737,56.538z M15.719,54.682h34.799c2.096-0.572,2.419-2.714,2.437-3.896H16.947
			C16.726,52.586,16.264,53.833,15.719,54.682z"/>
	</g>
	<polygon fill="#EBECEF" points="49.595,17.538 49.595,43.243 26.9,38.165 	"/>
	<rect x="18.203" y="31.286" fill="#30323B" width="23.184" height="1.847"/>
	<rect x="18.203" y="23.946" fill="#30323B" width="23.184" height="1.847"/>
	<rect x="18.203" y="16.615" fill="#30323B" width="23.184" height="1.847"/>
	<rect x="18.203" y="38.626" fill="#30323B" width="23.184" height="1.847"/>
	<g>
		<g>
			
				<rect x="26.831" y="19.95" transform="matrix(0.7071 -0.7071 0.7071 0.7071 -4.4105 36.5833)" fill="#FFFFFF" width="30.247" height="7.331"/>
			<path fill="#30323B" d="M33.862,37.832c-0.249,0-0.48-0.102-0.656-0.268l-5.189-5.189c-0.36-0.36-0.36-0.942,0-1.302L49.41,9.681
				c0.36-0.36,0.942-0.36,1.302,0l5.189,5.189c0.175,0.175,0.268,0.406,0.268,0.656c0,0.249-0.102,0.48-0.268,0.656L34.508,37.555
				C34.342,37.731,34.102,37.832,33.862,37.832z M29.975,31.72l3.878,3.878l20.082-20.082l-3.878-3.878L29.975,31.72z"/>
		</g>
		<g>
			
				<rect x="51.937" y="7.543" transform="matrix(0.7073 -0.7069 0.7069 0.7073 7.9892 41.7115)" fill="#189DDA" width="4.856" height="7.331"/>
			<path fill="#30323B" d="M55.245,16.44c-0.24,0-0.471-0.092-0.656-0.268l-5.189-5.189c-0.175-0.175-0.268-0.406-0.268-0.656
				c0-0.249,0.102-0.48,0.268-0.656l3.435-3.435c0.36-0.36,0.942-0.36,1.302,0l5.189,5.189c0.175,0.175,0.268,0.406,0.268,0.656
				c0,0.249-0.102,0.48-0.268,0.656l-3.435,3.425C55.716,16.347,55.485,16.44,55.245,16.44z M51.368,10.337l3.878,3.878l2.124-2.124
				l-3.878-3.878L51.368,10.337z"/>
		</g>
		<g>
			<polygon fill="#FFFFFF" points="27.417,35.653 27.067,36.761 26.273,39.245 28.775,38.479 29.901,38.137 33.834,36.928 
				28.645,31.748 			"/>
			<path fill="#30323B" d="M26.273,40.168c-0.24,0-0.48-0.092-0.656-0.268c-0.24-0.249-0.332-0.6-0.222-0.933l2.373-7.506
				c0.092-0.305,0.351-0.545,0.665-0.619c0.305-0.083,0.646,0.018,0.868,0.24l5.189,5.189c0.231,0.231,0.323,0.563,0.24,0.877
				c-0.074,0.314-0.314,0.563-0.628,0.656l-7.562,2.317C26.457,40.15,26.365,40.168,26.273,40.168z M29.07,33.474l-1.385,4.376
				l4.404-1.348L29.07,33.474z"/>
		</g>
	</g>
</g>
</svg>
