<?xml version="1.0" encoding="utf-8"?>
<!-- Generator: Adobe Illustrator 25.2.3, SVG Export Plug-In . SVG Version: 6.00 Build 0)  -->
<svg version="1.1" id="Layer_1" xmlns="http://www.w3.org/2000/svg" xmlns:xlink="http://www.w3.org/1999/xlink" x="0px" y="0px"
	 viewBox="0 0 24 24" style="enable-background:new 0 0 24 24;" xml:space="preserve">
<style type="text/css">
	.st0{display:none;}
	.st1{display:inline;fill:#FFFFFF;}
	.st2{fill:#858585;}
</style>
<g id="area_copy_6" class="st0">
	<rect x="-5.2" y="373.5" class="st1" width="34.5" height="34.5"/>
</g>
<path class="st2" d="M19.6,8.2c-0.2-0.7-0.7-1.2-1.4-1.4C16.9,6.5,12,6.5,12,6.5s-4.9,0-6.2,0.3C5.1,7,4.6,7.5,4.4,8.2
	C4.1,9.4,4.1,12,4.1,12s0,2.6,0.3,3.8c0.2,0.7,0.7,1.2,1.4,1.4c1.2,0.3,6.2,0.3,6.2,0.3s4.9,0,6.2-0.3c0.7-0.2,1.2-0.7,1.4-1.4
	c0.3-1.2,0.3-3.8,0.3-3.8S19.9,9.4,19.6,8.2z M10.4,14.4V9.6l4.1,2.4L10.4,14.4z"/>
</svg>
