<?xml version="1.0" encoding="utf-8"?>
<!-- Generator: Adobe Illustrator 24.2.3, SVG Export Plug-In . SVG Version: 6.00 Build 0)  -->
<svg version="1.0" id="Layer_1" xmlns="http://www.w3.org/2000/svg" xmlns:xlink="http://www.w3.org/1999/xlink" x="0px" y="0px"
	 viewBox="0 0 85.04 85.04" style="enable-background:new 0 0 85.04 85.04;" xml:space="preserve">
<style type="text/css">
	.st0{fill:#FFFFFF;stroke:#050303;stroke-width:2;stroke-linecap:round;stroke-linejoin:round;}
	.st1{fill:none;stroke:#050303;stroke-width:2;stroke-linecap:round;stroke-linejoin:round;}
	.st2{fill:#00A1DF;}
</style>
<g>
	<polygon class="st0" points="9.28,36.1 42.52,12.26 75.76,36.1 75.76,36.1 75.76,72.78 9.28,72.78 	"/>
	<polyline class="st0" points="70.63,38.59 70.63,22.42 14.41,22.42 14.41,38.59 	"/>
	<g>
		<polyline class="st1" points="9.28,36.1 41.43,55.92 9.28,72.78 		"/>
		<polyline class="st1" points="75.76,36.1 43.61,55.92 75.76,72.78 		"/>
	</g>
	<polyline class="st0" points="9.28,71.99 42.52,48.16 75.76,71.99 75.76,71.99 	"/>
	<g>
		<g>
			<rect x="31.1" y="30.33" class="st2" width="10.79" height="2.31"/>
			<rect x="31.1" y="34.94" class="st2" width="10.79" height="2.31"/>
			<rect x="31.1" y="39.56" class="st2" width="10.79" height="2.31"/>
		</g>
		<path class="st2" d="M53.94,33.79c0-1.91-1.55-3.46-3.46-3.46v0h-7.33v2.31h4.07h3.25l0,0c0.64,0,1.15,0.51,1.15,1.15
			c0,0.64-0.52,1.16-1.16,1.16h-7.32l0,0v2.31l0,0h7.33l0,0c0.64,0,1.15,0.52,1.15,1.15c0,0.64-0.52,1.15-1.15,1.15h-3.26h-4.07
			v2.31h7.33c1.91,0,3.46-1.55,3.46-3.46c0-0.89-0.33-1.7-0.89-2.31C53.61,35.49,53.94,34.68,53.94,33.79z"/>
	</g>
</g>
</svg>
