<?xml version="1.0" encoding="utf-8"?>
<!-- Generator: Adobe Illustrator 24.2.3, SVG Export Plug-In . SVG Version: 6.00 Build 0)  -->
<svg version="1.0" id="Layer_1" xmlns="http://www.w3.org/2000/svg" xmlns:xlink="http://www.w3.org/1999/xlink" x="0px" y="0px"
	 viewBox="0 0 85.04 85.04" style="enable-background:new 0 0 85.04 85.04;" xml:space="preserve">
<style type="text/css">
	.st0{fill:#FFFFFF;stroke:#050303;stroke-width:2;stroke-linecap:round;stroke-linejoin:round;}
	.st1{fill:none;stroke:#050303;stroke-width:2;stroke-linecap:round;stroke-linejoin:round;}
	.st2{fill:#FFFFFF;stroke:#00A1DF;stroke-width:2;stroke-linecap:round;stroke-linejoin:round;}
</style>
<g>
	<path class="st0" d="M6.53,60.49c0-19.87,16.11-35.97,35.99-35.97s35.99,16.11,35.99,35.97"/>
	<path class="st0" d="M79.14,65.36H5.9c-1.28,0-2.31-1.04-2.31-2.31V62.8c0-1.28,1.04-2.31,2.31-2.31h73.25
		c1.28,0,2.31,1.04,2.31,2.31v0.24C81.46,64.32,80.42,65.36,79.14,65.36z"/>
	<g>
		<line class="st1" x1="42.52" y1="19.93" x2="42.52" y2="23.64"/>
		<line class="st1" x1="45.42" y1="19.68" x2="39.61" y2="19.68"/>
	</g>
	<path class="st2" d="M47.69,31.78c10.26,1.64,18.64,8.09,22.04,16.62"/>
</g>
</svg>
