<?xml version="1.0" encoding="utf-8"?>
<!-- Generator: Adobe Illustrator 23.0.4, SVG Export Plug-In . SVG Version: 6.00 Build 0)  -->
<svg version="1.1" id="Layer_1" xmlns="http://www.w3.org/2000/svg" xmlns:xlink="http://www.w3.org/1999/xlink" x="0px" y="0px"
	 viewBox="0 0 62 62" enable-background="new 0 0 62 62" xml:space="preserve">
<g>
	<g>
		<g>
			<path fill="#EBECEF" stroke="#343231" stroke-width="2" stroke-miterlimit="10" d="M39.635,18.86h-2.86l-0.66,4.6
				c-1.92,0.42-3.71,1.18-5.32,2.21l-3.73-2.79l-4.05,4.05l2.79,3.73c-1.03,1.61-1.79,3.4-2.21,5.32l-4.6,0.66v5.72l4.6,0.66
				c0.42,1.92,1.18,3.71,2.21,5.32l-2.79,3.73l4.05,4.05l3.73-2.79c1.61,1.03,3.4,1.79,5.32,2.21l0.66,4.6h2.86"/>
			<path fill="#EBECEF" stroke="#343231" stroke-width="2" stroke-miterlimit="10" d="M39.355,60.12h2.86l0.66-4.6
				c1.92-0.42,3.71-1.18,5.32-2.21l3.73,2.79l4.05-4.05l-2.79-3.73c1.03-1.61,1.79-3.4,2.21-5.32l4.6-0.66v-5.72l-4.6-0.66
				c-0.42-1.92-1.18-3.71-2.21-5.32l2.79-3.73l-4.05-4.05l-3.73,2.79c-1.61-1.03-3.4-1.79-5.32-2.21l-0.66-4.6h-2.86"/>
		</g>
		<ellipse fill="#189DDA" stroke="#343231" stroke-width="2" stroke-miterlimit="10" cx="39.545" cy="39.7" rx="8.22" ry="8.22"/>
	</g>
	<g>
		<g>
			<path fill="none" stroke="#343231" stroke-width="2" stroke-miterlimit="10" d="M12.945,1.86h-1.52l-0.35,2.44
				c-1.02,0.22-1.97,0.63-2.82,1.17L6.285,4l-2.15,2.14l1.48,1.98c-0.55,0.85-0.95,1.8-1.17,2.82l-2.44,0.35v3.03l2.44,0.35
				c0.22,1.02,0.63,1.97,1.17,2.82l-1.48,1.98l2.14,2.14l1.98-1.48c0.85,0.55,1.8,0.95,2.82,1.17l0.35,2.44h1.52"/>
			<path fill="none" stroke="#343231" stroke-width="2" stroke-miterlimit="10" d="M12.795,23.74h1.52l0.35-2.44
				c1.02-0.22,1.97-0.63,2.82-1.17l1.98,1.48l2.14-2.14l-1.48-1.98c0.55-0.85,0.95-1.8,1.17-2.82l2.44-0.35v-3.03l-2.44-0.35
				c-0.22-1.02-0.63-1.97-1.17-2.82l1.48-1.98L19.465,4l-1.98,1.48c-0.85-0.55-1.8-0.95-2.82-1.17l-0.35-2.44h-1.52"/>
		</g>
		<ellipse fill="#189DDA" stroke="#343231" stroke-width="2" stroke-miterlimit="10" cx="12.895" cy="12.92" rx="4.36" ry="4.36"/>
	</g>
</g>
</svg>
