<svg xmlns="http://www.w3.org/2000/svg" width="26" height="26">
    <path fill="#EC6941" fill-rule="evenodd" d="M21.887 21.937a1.015 1.015 0 1 1-.001-2.03 1.015 1.015 0 0 1 .001 2.03zm3.335-4.437a2.734 2.734 0 0 0-2.497-1.605h-3.174c-1.142 0-2.139.673-2.54 1.716-.053.139-.119.314-.187.518h-6.649c-.274 0-.537.111-.729.308l-1.744 1.797a1.016 1.016 0 0 0 .004 1.419l1.777 1.809c.191.194.452.304.725.304h3.3a1.016 1.016 0 0 0 0-2.032h-2.874l-.784-.797.755-.777h6.981c.468 0 .875-.32.987-.774.082-.336.185-.658.334-1.046.098-.256.345-.414.647-.414H22.723c.287 0 .534.155.645.402.273.61.598 1.555.601 2.59.002 1.042-.323 2.008-.596 2.635a.695.695 0 0 1-.638.416h-3.207a.724.724 0 0 1-.655-.45 6.72 6.72 0 0 1-.315-1.006 1.016 1.016 0 0 0-1.975.473c.118.493.253.92.412 1.307A2.742 2.742 0 0 0 19.525 26H22.737a2.722 2.722 0 0 0 2.497-1.635c.351-.805.769-2.058.766-3.452-.004-1.391-.425-2.624-.778-3.413zM7.694 24.984c0 .561-.454 1.016-1.015 1.016H3.083c-.93 0-1.801-.414-2.388-1.136a3.084 3.084 0 0 1-.628-2.585 13.25 13.25 0 0 1 4.547-7.503 13.19 13.19 0 0 1 4.255-2.339 6.902 6.902 0 0 1-2.774-5.531A6.914 6.914 0 0 1 13.001 0c3.807 0 6.905 3.098 6.905 6.906a6.9 6.9 0 0 1-2.77 5.528c.17.056.339.115.508.178a1.015 1.015 0 1 1-.714 1.902 11.122 11.122 0 0 0-3.668-.707 7.574 7.574 0 0 1-.52 0c-5.161.12-9.632 3.82-10.686 8.886a1.058 1.058 0 0 0 1.027 1.276h3.596c.561 0 1.015.454 1.015 1.015zm5.068-13.209l.239-.002.237.002a4.88 4.88 0 0 0 4.637-4.869 4.88 4.88 0 0 0-4.874-4.875 4.88 4.88 0 0 0-4.875 4.875 4.88 4.88 0 0 0 4.636 4.869z"/>
</svg>
