<?xml version="1.0" encoding="utf-8"?>
<!-- Generator: Adobe Illustrator 23.0.4, SVG Export Plug-In . SVG Version: 6.00 Build 0)  -->
<svg version="1.1" id="Layer_1" xmlns="http://www.w3.org/2000/svg" xmlns:xlink="http://www.w3.org/1999/xlink" x="0px" y="0px"
	 viewBox="0 0 24 24" style="enable-background:new 0 0 24 24;" xml:space="preserve">
<style type="text/css">
	.st0{fill:none;stroke:#040000;stroke-width:2;stroke-miterlimit:10;}
	.st1{fill:#060001;stroke:#040000;stroke-width:2;stroke-miterlimit:10;}
</style>
<g>
	<path class="st0" d="M16.3,1.4H7.7c-3.5,0-6.3,2.8-6.3,6.3v8.5c0,3.5,2.8,6.3,6.3,6.3h8.6c3.5,0,6.3-2.8,6.3-6.3V7.7
		C22.6,4.2,19.8,1.4,16.3,1.4z"/>
	<path class="st1" d="M18.9,5.9c0,0.3-0.2,0.5-0.5,0.5s-0.5-0.2-0.5-0.5c0-0.3,0.2-0.5,0.5-0.5c0,0,0,0,0,0
		C18.7,5.3,18.9,5.6,18.9,5.9L18.9,5.9z"/>
	<circle class="st0" cx="12" cy="12" r="5"/>
</g>
</svg>
