<?xml version="1.0" encoding="utf-8"?>
<!-- Generator: Adobe Illustrator 23.0.4, SVG Export Plug-In . SVG Version: 6.00 Build 0)  -->
<svg version="1.1" id="Layer_1" xmlns="http://www.w3.org/2000/svg" xmlns:xlink="http://www.w3.org/1999/xlink" x="0px" y="0px"
	 viewBox="0 0 140 140" style="enable-background:new 0 0 140 140;" xml:space="preserve">
<style type="text/css">
	.st0{fill:#FFFFFF;stroke:#040000;stroke-width:2.5;stroke-linejoin:round;}
	.st1{fill:none;stroke:#040000;stroke-width:2.5;stroke-dasharray:4,3,4,3;}
</style>
<g>
	<g>
		<g>
			<path class="st0" d="M94.4,71.3h5.9l-5.9-10.5v-1.4c0-11.5-9.3-20.9-20.9-20.9c-11.5,0-20.9,9.3-20.9,20.9c0,0-2.2,11.1,7.1,20.5
				v21.5h19.9v-16c0,0,2.5,0,9,0c6.5,0,5.7-4.6,5.7-4.6V71.3z"/>
		</g>
		<g>
			<path class="st0" d="M81.7,71.3h5.9l-5.9-10.5v-1.4c0-11.5-9.3-20.9-20.9-20.9C49.3,38.6,40,47.9,40,59.5c0,0-2.2,11.1,7.1,20.5
				v21.5h19.9v-16c0,0,2.5,0,9,0c6.5,0,5.7-4.6,5.7-4.6V71.3z"/>
		</g>
	</g>
	<path class="st1" d="M122.6,70c0,29-23.5,52.6-52.6,52.6C41,122.6,17.4,99,17.4,70C17.4,41,41,17.4,70,17.4
		C99,17.4,122.6,41,122.6,70z"/>
</g>
</svg>
