<?xml version="1.0" encoding="utf-8"?>
<!-- Generator: Adobe Illustrator 23.0.4, SVG Export Plug-In . SVG Version: 6.00 Build 0)  -->
<svg version="1.1" id="Layer_1_1_" xmlns="http://www.w3.org/2000/svg" xmlns:xlink="http://www.w3.org/1999/xlink" x="0px" y="0px"
	 viewBox="0 0 512 512" style="enable-background:new 0 0 512 512;" xml:space="preserve">
<style type="text/css">
	.st0{opacity:0.5;}
</style>
<path class="st0" d="M88,426.8V488c0,4.4,3.6,8,8,8h72c4.4,0,8-3.6,8-8V360c0-2.1-0.8-4.2-2.3-5.7L72,252.7V156
	c0-15.4-12.6-28-28-28s-28,12.6-28,28v176c0,1.8,0.6,3.5,1.7,4.9L88,426.8z M32,156c0-6.6,5.4-12,12-12s12,5.4,12,12v100
	c0,2.1,0.8,4.2,2.3,5.7l11.6,11.6C57.3,277,48,288.8,48,302.6c0,8.2,3.2,15.9,9,21.7l49.4,49.4l11.3-11.3L68.3,313
	c-2.8-2.8-4.3-6.4-4.3-10.3c0-8.1,6.6-14.6,14.6-14.6c3.8,0,7.6,1.6,10.3,4.3l71,71V480h-56v-56c0-1.8-0.6-3.5-1.7-4.9L32,329.2V156
	z"/>
<path class="st0" d="M468,128c-15.4,0-28,12.6-28,28v96.7L338.3,354.3c-1.5,1.5-2.3,3.5-2.3,5.7v128c0,4.4,3.6,8,8,8h72
	c4.4,0,8-3.6,8-8v-61.2l70.3-89.8c1.1-1.4,1.7-3.1,1.7-4.9V156C496,140.6,483.4,128,468,128z M480,329.2l-70.3,89.8
	c-1.1,1.4-1.7,3.1-1.7,4.9v56h-56V363.3l71-71c2.7-2.7,6.5-4.3,10.3-4.3c8.1,0,14.6,6.6,14.6,14.6c0,3.9-1.5,7.6-4.3,10.3
	l-49.4,49.4l11.3,11.3l49.4-49.4c5.8-5.8,9-13.5,9-21.6c0-13.9-9.3-25.6-21.9-29.4l11.6-11.6c1.5-1.5,2.3-3.5,2.3-5.7V156
	c0-6.6,5.4-12,12-12s12,5.4,12,12L480,329.2z"/>
<path class="st0" d="M144,184v16h24v8c0,4.4,3.6,8,8,8h8v24h16v-24h16v24h16v-24h16v24h16v-24h16v24h16v-24h16v24h16v-24h8
	c4.4,0,8-3.6,8-8v-8h24v-16h-24v-16h24v-16h-24v-16h24v-16h-24v-16h24V88h-24V72h24V56h-24v-8c0-4.4-3.6-8-8-8h-8V16h-16v24h-16V16
	h-16v24h-16V16h-16v24h-16V16h-16v24h-16V16h-16v24h-8c-4.4,0-8,3.6-8,8v8h-24v16h24v16h-24v16h24v16h-24v16h24v16h-24v16h24v16H144
	z M216,152c0-4.4,3.6-8,8-8s8,3.6,8,8s-3.6,8-8,8S216,156.4,216,152z M232,174.5c6.8-2.4,12.1-7.8,14.5-14.5H296v40h-64V174.5z
	 M328,200h-16v-48c0-4.4-3.6-8-8-8h-57.5c-3.3-9.3-12.1-16-22.5-16c-13.2,0-24,10.8-24,24c0,10.4,6.7,19.2,16,22.5V200h-32v-96h49.5
	c3.3,9.3,12.1,16,22.5,16c10.4,0,19.2-6.7,22.5-16H304c4.4,0,8-3.6,8-8V56h16V200z M248,96c0-4.4,3.6-8,8-8c4.4,0,8,3.6,8,8
	s-3.6,8-8,8S248,100.4,248,96z M296,56v32h-17.5c-3.3-9.3-12.1-16-22.5-16s-19.2,6.7-22.5,16H184V56H296z"/>
<path class="st0" d="M216,256h16v16h-16V256z"/>
<path class="st0" d="M248,256h16v16h-16V256z"/>
<path class="st0" d="M280,256h16v16h-16V256z"/>
</svg>
