<?xml version="1.0" encoding="utf-8"?>
<!-- Generator: Adobe Illustrator 23.0.4, SVG Export Plug-In . SVG Version: 6.00 Build 0)  -->
<svg version="1.1" id="Layer_1" xmlns="http://www.w3.org/2000/svg" xmlns:xlink="http://www.w3.org/1999/xlink" x="0px" y="0px"
	 viewBox="0 0 140 140" style="enable-background:new 0 0 140 140;" xml:space="preserve">
<style type="text/css">
	.st0{fill:none;stroke:#171818;stroke-width:2.5;}
	.st1{fill:#FFFFFF;stroke:#171818;stroke-width:2.5;}
	.st2{fill:#FFFFFF;stroke:#040000;stroke-width:2.5;}
	.st3{fill:#FFFFFF;stroke:#040000;stroke-width:2.5;stroke-linejoin:round;}
</style>
<g>
	<g>
		<line class="st0" x1="66.8" y1="85.9" x2="15.9" y2="85.9"/>
		<path class="st1" d="M15.9,81.1c2.6,0,4.8,2.1,4.8,4.8s-2.1,4.8-4.8,4.8c-2.6,0-4.8-2.1-4.8-4.8S13.3,81.1,15.9,81.1z"/>
		<line class="st0" x1="14.5" y1="85.9" x2="17.4" y2="85.9"/>
		<g>
			<g>
				<polyline class="st0" points="65.2,96.6 51.9,96.6 46.4,109.4 31.8,109.4 				"/>
				<path class="st1" d="M32,104.7c2.6,0,4.8,2.1,4.8,4.8c0,2.6-2.1,4.8-4.8,4.8c-2.6,0-4.8-2.1-4.8-4.8
					C27.2,106.8,29.3,104.7,32,104.7z"/>
			</g>
			<polyline class="st0" points="65.2,75.1 51.9,75.1 46.4,62.3 31.8,62.3 			"/>
			<path class="st1" d="M32,67.1c2.6,0,4.8-2.1,4.8-4.8c0-2.6-2.1-4.8-4.8-4.8c-2.6,0-4.8,2.1-4.8,4.8C27.2,64.9,29.3,67.1,32,67.1z
				"/>
		</g>
	</g>
	<g>
		<path class="st2" d="M59,56.4C59,37.7,73,23.9,90.1,23.9c17.2,0,31.1,13.7,31.1,32.5c0,2.2-0.2,4.4-0.6,6.5
			c0.3,0.4,0.6,0.8,0.9,1.3l6.4,11.3c2,3.6,0.3,6.5-3.8,6.5h-6.9v10.8c0,4.1-3.3,7.5-7.5,7.5h-6.5v15.7H62.8V72.6
			C60.4,67.8,59,62.3,59,56.4z"/>
		<g>
			<path class="st3" d="M99.9,77.8c0,4-3.3,7.3-7.3,7.3H77.9c-4,0-7.3-3.3-7.3-7.3V66.1c0-4,3.3-7.3,7.3-7.3h14.7
				c4,0,7.3,3.3,7.3,7.3V77.8z"/>
			<path class="st3" d="M92.7,47.8c0,4.1-3.3,7.5-7.5,7.5c-4.1,0-7.5-3.3-7.5-7.5s3.3-7.5,7.5-7.5C89.4,40.4,92.7,43.7,92.7,47.8z"
				/>
			<polyline class="st3" points="76.1,63.9 76.1,116.1 85.3,116.1 85.3,85.7 85.3,116.1 94.4,116.1 94.4,63.9 			"/>
		</g>
	</g>
</g>
</svg>
