<?xml version="1.0" encoding="utf-8"?>
<!-- Generator: Adobe Illustrator 24.2.3, SVG Export Plug-In . SVG Version: 6.00 Build 0)  -->
<svg version="1.0" id="Layer_1" xmlns="http://www.w3.org/2000/svg" xmlns:xlink="http://www.w3.org/1999/xlink" x="0px" y="0px"
	 viewBox="0 0 85.04 85.04" style="enable-background:new 0 0 85.04 85.04;" xml:space="preserve">
<style type="text/css">
	.st0{fill:#FFFFFF;stroke:#050303;stroke-width:2;stroke-linecap:round;stroke-linejoin:round;}
	.st1{fill:none;stroke:#050303;stroke-width:2;stroke-linejoin:round;}
	.st2{fill:#00A1DF;}
</style>
<g>
	<g>
		<path class="st0" d="M43.12,27.22c1.6,9.69,1.57,33.95-16.61,29.29c-19.79-5.08-7.78-25.43-1.54-33.95L43.12,27.22z"/>
		<g>
			<line class="st1" x1="20.3" y1="78.81" x2="26.1" y2="56.22"/>
			<line class="st1" x1="12.69" y1="77.15" x2="27.76" y2="81.02"/>
		</g>
		<line class="st1" x1="43.59" y1="35.54" x2="15.61" y2="45.52"/>
		<circle class="st1" cx="25.97" cy="49.53" r="0.69"/>
		<circle class="st1" cx="33.22" cy="50.82" r="0.69"/>
		<circle class="st1" cx="30.66" cy="45.13" r="0.69"/>
	</g>
	<g>
		<path class="st0" d="M68.2,26.07c3.96,8.99,9.96,32.5-8.8,32.5c-20.43,0-13.86-22.7-9.93-32.5H68.2z"/>
		<g>
			<line class="st1" x1="58.92" y1="81.72" x2="58.92" y2="58.39"/>
			<line class="st1" x1="51.14" y1="82" x2="66.7" y2="82"/>
		</g>
		<line class="st1" x1="71.54" y1="38.85" x2="45.29" y2="39.1"/>
		<circle class="st1" cx="55.81" cy="51.68" r="0.64"/>
		<circle class="st1" cx="63.48" cy="47.61" r="0.64"/>
		<circle class="st1" cx="55.06" cy="46.27" r="0.64"/>
	</g>
	<g>
		<g>
			<path class="st2" d="M36.18,15.26c-0.01-0.26-0.19-1.67-2.25-2.09c-3.52-0.73-4.17-1.31-5.25-3.28l2.19-1.2
				c0.71,1.29,0.8,1.46,3.57,2.04c3.3,0.69,4.22,3.24,4.24,4.5L36.18,15.26z"/>
		</g>
		<g>
			<path class="st2" d="M43.26,15.14c-1.03-0.72-2.63-2.91-1.35-6.03c1.07-2.62,0.99-2.79,0.31-4.1l2.23-1.14
				c1.03,2,1.14,2.87-0.22,6.19c-0.85,2.07,0.46,3.02,0.48,3.03L43.26,15.14z"/>
		</g>
		<g>
			<path class="st2" d="M50.65,14.63l-1.68-1.85c1.09-0.99,1.23-1.12,1.14-3.95c-0.1-3.37,2.17-4.86,3.38-5.17l0.63,2.42
				c-0.25,0.07-1.57,0.58-1.51,2.67C52.73,12.34,52.32,13.11,50.65,14.63z"/>
		</g>
		<g>
			<g>
				<rect x="39.64" y="18.08" class="st2" width="2.5" height="2.82"/>
			</g>
		</g>
		<g>
			<g>
				<rect x="58.25" y="7.87" class="st2" width="2.5" height="2.82"/>
			</g>
		</g>
		<g>
			<g>
				<rect x="33.85" y="3.04" class="st2" width="2.5" height="2.82"/>
			</g>
		</g>
	</g>
</g>
</svg>
