<svg id="Layer_1" data-name="Layer 1" xmlns="http://www.w3.org/2000/svg" viewBox="0 0 53.79 78.79"><defs><style>.cls-1{fill:#fff;}</style></defs><title>icon_play</title><rect class="cls-1" x="204.61" y="261.88" width="46.34" height="8.84" rx="4.42" transform="translate(270.72 -172.16) rotate(90)"/><path class="cls-1" d="M269.61,253.18l-45-35a4.41,4.41,0,0,1,0-6.25h0a4.41,4.41,0,0,1,6.25,0l45,35a4.41,4.41,0,0,1,0,6.25h0A4.41,4.41,0,0,1,269.61,253.18Z" transform="translate(-223.36 -210.68)"/><path class="cls-1" d="M230.91,288.18l45-35a4.41,4.41,0,0,0,0-6.25h0a4.41,4.41,0,0,0-6.25,0l-45,35a4.41,4.41,0,0,0,0,6.25h0A4.41,4.41,0,0,0,230.91,288.18Z" transform="translate(-223.36 -210.68)"/></svg>