<?xml version="1.0" encoding="utf-8"?>
<!-- Generator: Adobe Illustrator 24.2.1, SVG Export Plug-In . SVG Version: 6.00 Build 0)  -->
<svg version="1.0" id="Layer_1" xmlns="http://www.w3.org/2000/svg" xmlns:xlink="http://www.w3.org/1999/xlink" x="0px" y="0px"
	 viewBox="0 0 113.39 113.39" style="enable-background:new 0 0 113.39 113.39;" xml:space="preserve">
<style type="text/css">
	.st0{fill:none;stroke:#050303;stroke-width:2;}
	.st1{fill:none;stroke:#00A1DF;stroke-width:2;}
</style>
<g>
	<g>
		<path class="st0" d="M56.69,106.01v-16.5c0-4.94-2.11-9.64-5.79-12.93l-10.83-9.66c-1.95-2.17-5.43-2.15-7.34,0.23
			c-1.5,1.86-1.23,4.61,0.37,6.39l8.33,9.26l-0.04,0.01l-7.73-8.6c-2.47-2.75-3.83-6.33-3.8-10.03l0.1-13.64
			c0.02-2.47-1.98-4.48-4.45-4.48l0,0c-2.46,0-4.45,1.99-4.45,4.45v17.8c0,5.29,1.7,10.44,4.84,14.7l9.41,12.74
			c1.22,1.68,1.88,3.7,1.89,5.77l0.06,4.52"/>
		<path class="st0" d="M56.69,106.01v-16.5c0-4.94,2.11-9.64,5.79-12.93l10.83-9.66c1.95-2.17,5.43-2.15,7.34,0.23
			c1.5,1.86,1.23,4.61-0.37,6.39l-8.33,9.26L72,82.8l7.73-8.6c2.47-2.75,3.83-6.33,3.8-10.03l-0.1-13.64
			c-0.02-2.47,1.98-4.48,4.45-4.48h0c2.46,0,4.45,1.99,4.45,4.45v17.8c0,5.29-1.7,10.44-4.84,14.7l-9.41,12.74
			c-1.22,1.68-1.88,3.7-1.89,5.77l-0.06,4.52"/>
	</g>
	<g>
		<line class="st1" x1="56.69" y1="33.12" x2="56.69" y2="54.24"/>
		<line class="st1" x1="51.98" y1="33.12" x2="61.41" y2="33.12"/>
		<path class="st0" d="M74.78,25.43c0-11.27-10.31-20.14-22.01-17.68c-6.95,1.46-12.5,7.17-13.83,14.15
			c-1.18,6.22,0.84,11.94,4.68,15.93c2.76,2.87,4.55,6.54,4.55,10.52v5.88h17.06v-5.87c0-3.99,1.79-7.66,4.56-10.54
			C72.87,34.6,74.78,30.25,74.78,25.43z"/>
		<g>
			<line class="st0" x1="50.02" y1="58.87" x2="63.37" y2="58.87"/>
			<line class="st0" x1="50.95" y1="63.65" x2="62.44" y2="63.65"/>
			<path class="st0" d="M60.91,68.5c-0.79,1.58-2.42,2.67-4.31,2.67c-1.89,0-3.52-1.09-4.31-2.67"/>
		</g>
		<path class="st0" d="M46.22,21.07c1.36-3.37,4.31-5.93,7.92-6.74"/>
	</g>
</g>
</svg>
