<?xml version="1.0" encoding="utf-8"?>
<!-- Generator: Adobe Illustrator 24.2.1, SVG Export Plug-In . SVG Version: 6.00 Build 0)  -->
<svg version="1.0" id="Layer_1" xmlns="http://www.w3.org/2000/svg" xmlns:xlink="http://www.w3.org/1999/xlink" x="0px" y="0px"
	 viewBox="0 0 113.39 113.39" style="enable-background:new 0 0 113.39 113.39;" xml:space="preserve">
<style type="text/css">
	.st0{fill:none;stroke:#050303;stroke-width:2;}
	.st1{fill:none;stroke:#00A1DF;stroke-width:2;}
</style>
<g>
	<g>
		<path class="st0" d="M74.18,85.88H39.21c-2.33,0-4.23-1.89-4.23-4.23l0,0c0-2.33,1.89-4.23,4.23-4.23h34.97
			c2.33,0,4.23,1.89,4.23,4.23l0,0C78.4,83.98,76.51,85.88,74.18,85.88z"/>
		<path class="st0" d="M74.18,85.88c2.33,0,4.23,1.89,4.23,4.23v0c0,2.33-1.89,4.23-4.23,4.23H39.21c-2.33,0-4.23-1.89-4.23-4.23v0
			c0-2.33,1.89-4.23,4.23-4.23"/>
		<path class="st0" d="M70.3,94.33L70.3,94.33c0,6.83-5.54,12.37-12.37,12.37h-2.48c-6.83,0-12.37-5.54-12.37-12.37v0"/>
	</g>
	<g>
		<path class="st0" d="M72.82,73.13c1.43-1.15,2.73-2.45,3.88-3.88l4.33,1.96l3.5-6.06l-3.87-2.77c0.65-1.69,1.12-3.45,1.41-5.29
			l4.75-0.47v-7l-4.75-0.47c-0.28-1.84-0.76-3.61-1.41-5.29l3.87-2.77l-3.5-6.06L76.7,37c-1.15-1.43-2.45-2.73-3.88-3.88l1.96-4.33
			l-6.06-3.5l-2.77,3.87c-1.69-0.65-3.45-1.12-5.29-1.41l-0.47-4.75h-7l-0.47,4.75c-1.27,0.23-3.61,0.76-5.29,1.41l-2.77-3.87
			l-6.06,3.5l1.96,4.33c-1.18,0.89-2.73,2.45-3.88,3.88l-4.33-1.96l-3.5,6.06l3.87,2.77c-0.65,1.69-1.12,3.45-1.41,5.29l-4.75,0.47
			v7l4.75,0.47c0.28,1.84,0.76,3.6,1.41,5.29l-3.87,2.77l3.5,6.06l4.33-1.96c1.01,1.45,2.45,2.73,3.88,3.88"/>
		<circle class="st1" cx="56.69" cy="53.13" r="14.57"/>
	</g>
	<line class="st0" x1="56.69" y1="6.69" x2="56.69" y2="16.02"/>
	<line class="st0" x1="33.47" y1="12.91" x2="38.14" y2="20.99"/>
	<line class="st0" x1="16.47" y1="29.91" x2="24.55" y2="34.57"/>
	<line class="st0" x1="10.25" y1="53.13" x2="19.58" y2="53.13"/>
	<line class="st0" x1="16.47" y1="76.35" x2="24.55" y2="71.69"/>
	<line class="st0" x1="96.91" y1="76.35" x2="88.84" y2="71.69"/>
	<line class="st0" x1="103.14" y1="53.13" x2="93.81" y2="53.13"/>
	<line class="st0" x1="96.91" y1="29.91" x2="88.84" y2="34.57"/>
	<line class="st0" x1="79.91" y1="12.91" x2="75.25" y2="20.99"/>
</g>
</svg>
