<?xml version="1.0" encoding="utf-8"?>
<!-- Generator: Adobe Illustrator 16.0.0, SVG Export Plug-In . SVG Version: 6.00 Build 0)  -->
<!DOCTYPE svg PUBLIC "-//W3C//DTD SVG 1.1//EN" "http://www.w3.org/Graphics/SVG/1.1/DTD/svg11.dtd">
<svg version="1.1" id="Layer_1" xmlns="http://www.w3.org/2000/svg" xmlns:xlink="http://www.w3.org/1999/xlink" x="0px" y="0px"
	 width="15px" height="16px" xml:space="preserve">
<g>
	<g>
		<polygon fill="#070404" points="12.03,13.248 2.651,13.248 0.961,0.806 0,0.806 0,0 1.667,0 3.356,12.441 12.03,12.441 		"/>
		<path fill="#070404" d="M12.278,10.851H2.317l-1.031-7.65h13.193L12.278,10.851z M3.031,10.045h8.642l1.736-6.038h-11.2
			L3.031,10.045z"/>
		<path fill="#070404" d="M4.775,16.488c-0.861,0.076-1.582-0.645-1.503-1.504c0.062-0.659,0.589-1.193,1.255-1.256
			c0.861-0.077,1.582,0.644,1.503,1.504C5.976,15.898,5.441,16.433,4.775,16.488z M4.713,14.534
			c-0.364-0.038-0.674,0.271-0.636,0.636c0.031,0.271,0.248,0.488,0.52,0.52c0.364,0.038,0.674-0.271,0.636-0.637
			C5.201,14.782,4.984,14.556,4.713,14.534z"/>
		<path fill="#070404" d="M10.433,16.488c-0.859,0.076-1.58-0.645-1.503-1.504c0.062-0.659,0.589-1.193,1.255-1.256
			c0.861-0.077,1.582,0.644,1.504,1.504C11.635,15.898,11.101,16.433,10.433,16.488z M10.372,14.534
			c-0.365-0.038-0.676,0.271-0.637,0.636c0.031,0.271,0.248,0.488,0.52,0.52c0.364,0.038,0.674-0.271,0.636-0.637
			C10.86,14.782,10.643,14.556,10.372,14.534z"/>
		<rect x="4.077" y="4.782" fill="#070404" width="0.806" height="4.411"/>
		<rect x="6.093" y="4.782" fill="#070404" width="0.806" height="4.411"/>
		<rect x="8.139" y="4.782" fill="#070404" width="0.806" height="4.411"/>
		<rect x="10.154" y="4.782" fill="#070404" width="0.806" height="4.411"/>
	</g>
</g>
</svg>
