<?xml version="1.0" encoding="utf-8"?>
<!-- Generator: Adobe Illustrator 23.0.4, SVG Export Plug-In . SVG Version: 6.00 Build 0)  -->
<svg version="1.1" id="Layer_1" xmlns="http://www.w3.org/2000/svg" xmlns:xlink="http://www.w3.org/1999/xlink" x="0px" y="0px"
	 viewBox="0 0 24 24" enable-background="new 0 0 24 24" xml:space="preserve">
<g id="area_copy_6" display="none">
	<rect x="-5.242" y="373.517" display="inline" fill="#FFFFFF" width="34.484" height="34.484"/>
</g>
<g>
	<rect x="2.214" y="7.056" fill="#ffffff" width="9.241" height="1.978"/>
	<rect x="2.214" y="11.011" fill="#ffffff" width="9.241" height="1.978"/>
	<rect x="2.214" y="14.966" fill="#ffffff" width="9.241" height="1.978"/>
	<g>
		<path fill="#ffffff" d="M21.786,10.022c0-1.637-1.325-2.964-2.962-2.966h-6.278v1.977h3.491h2.788
			c0.545,0.002,0.986,0.44,0.986,0.985c0,0.547-0.443,0.993-0.99,0.993h-6.275v1.977h6.278c0.546,0,0.989,0.443,0.989,0.989
			c0,0.546-0.443,0.989-0.989,0.989h-2.791h-3.488v1.978h6.278c1.636,0,2.962-1.326,2.962-2.962c0-0.761-0.287-1.454-0.758-1.978
			C21.499,11.477,21.786,10.783,21.786,10.022"/>
	</g>
</g>
</svg>
