<?xml version="1.0" encoding="utf-8"?>
<!-- Generator: Adobe Illustrator 24.2.3, SVG Export Plug-In . SVG Version: 6.00 Build 0)  -->
<svg version="1.0" id="Layer_1" xmlns="http://www.w3.org/2000/svg" xmlns:xlink="http://www.w3.org/1999/xlink" x="0px" y="0px"
	 viewBox="0 0 85.04 85.04" style="enable-background:new 0 0 85.04 85.04;" xml:space="preserve">
<style type="text/css">
	.st0{fill:#FFFFFF;stroke:#050303;stroke-width:2;stroke-linecap:round;stroke-linejoin:round;}
	.st1{fill:#00A1DF;}
</style>
<g>
	<g>
		<polygon class="st0" points="55.44,79.64 29.43,79.64 23.23,26.76 61.65,26.76 		"/>
		<rect x="21.16" y="24.48" class="st0" width="42.55" height="5.89"/>
		<line class="st0" x1="56.47" y1="70.86" x2="28.38" y2="70.75"/>
		<line class="st0" x1="25.16" y1="43.29" x2="59.71" y2="43.29"/>
	</g>
	<g>
		<g>
			<g>
				<path class="st1" d="M45.82,60.19c-2.01,1.88-6.22,4.49-8.76,1.95c-0.16,0.61-0.32,1.22-0.48,1.84
					c2.54-0.75,4.84-2.13,6.19-4.49c0.94-1.64,1.31-3.42,2.71-4.81c1.1-1.09,2.47-1.79,3.93-2.26c-0.41-0.17-0.83-0.34-1.24-0.51
					C49.75,54.79,47.79,58.08,45.82,60.19c-0.97,1.03,0.59,2.59,1.55,1.55c2.7-2.89,4.79-7.13,2.69-10.94
					c-0.23-0.41-0.79-0.65-1.24-0.5c-2.36,0.76-4.48,2.04-5.95,4.06c-1.04,1.43-1.37,3.2-2.38,4.62c-1.09,1.52-2.74,2.36-4.49,2.88
					c-0.79,0.23-1.08,1.24-0.48,1.84c3.48,3.48,8.92,0.81,11.87-1.95C48.41,60.78,46.85,59.23,45.82,60.19z"/>
			</g>
		</g>
		<g>
			<g>
				<path class="st1" d="M37.06,62.15c-4.4-5.21,6.74-15.65,11.28-10c0.16-0.61,0.32-1.22,0.48-1.84c-2.36,0.76-4.48,2.04-5.95,4.06
					c-1.04,1.43-1.37,3.2-2.38,4.62c-1.09,1.52-2.74,2.36-4.49,2.88c-1.35,0.4-0.78,2.52,0.58,2.12c2.54-0.75,4.84-2.13,6.19-4.49
					c0.94-1.64,1.31-3.42,2.71-4.81c1.1-1.09,2.47-1.79,3.93-2.26c0.84-0.27,1.01-1.19,0.48-1.84c-6.29-7.82-20.68,5.66-14.39,13.11
					C36.42,64.78,37.97,63.22,37.06,62.15z"/>
			</g>
		</g>
	</g>
	<g>
		<path d="M35.39,13.25c0.01,0.01,0.03,0.03,0.05,0.04c0.22,0.18,0.43,0.37,0.6,0.6c0.72,0.97,0.91,2.22,0.43,3.35
			c-0.52,1.25-2.31,1.88-2.47,3.27c-0.14,1.23-2.08,1.24-1.93,0c0.15-1.36,0.68-1.91,1.53-2.84v-0.01c2.27-1.74,0.03-3.52,0.03-3.52
			s-0.61-0.41-0.86-0.75c-0.72-0.97-0.91-2.22-0.43-3.34c0.52-1.25,2.31-1.88,2.47-3.27c0.14-1.23,2.08-1.24,1.94,0
			c-0.16,1.36-0.68,1.91-1.54,2.84C35.21,9.62,32.89,11.46,35.39,13.25z"/>
		<path d="M43.42,13.25c0.01,0.01,0.03,0.03,0.05,0.04c0.22,0.18,0.43,0.37,0.6,0.6c0.72,0.97,0.91,2.22,0.43,3.35
			c-0.52,1.25-2.31,1.88-2.47,3.27c-0.14,1.23-2.08,1.24-1.93,0c0.15-1.36,0.68-1.91,1.53-2.84v-0.01c2.27-1.74,0.03-3.52,0.03-3.52
			s-0.61-0.41-0.86-0.75c-0.72-0.97-0.91-2.22-0.43-3.34c0.52-1.25,2.31-1.88,2.47-3.27c0.14-1.23,2.08-1.24,1.94,0
			c-0.16,1.36-0.68,1.91-1.54,2.84C43.24,9.62,40.91,11.46,43.42,13.25z"/>
		<path d="M51.44,13.25c0.01,0.01,0.03,0.03,0.05,0.04c0.22,0.18,0.43,0.37,0.6,0.6c0.72,0.97,0.91,2.22,0.43,3.35
			c-0.52,1.25-2.31,1.88-2.47,3.27c-0.14,1.23-2.08,1.24-1.93,0c0.15-1.36,0.68-1.91,1.53-2.84v-0.01c2.27-1.74,0.03-3.52,0.03-3.52
			s-0.61-0.41-0.86-0.75c-0.72-0.97-0.91-2.22-0.43-3.34c0.52-1.25,2.31-1.88,2.47-3.27c0.14-1.23,2.08-1.24,1.94,0
			c-0.16,1.36-0.68,1.91-1.54,2.84C51.26,9.62,48.93,11.46,51.44,13.25z"/>
	</g>
</g>
</svg>
