<svg id="Layer_1" data-name="Layer 1" xmlns="http://www.w3.org/2000/svg" viewBox="0 0 160 160"><defs><style>.cls-1{fill:#00a1df;opacity:0.5;}.cls-2{fill:#fff;}</style></defs><title>icon_play_blue</title><circle class="cls-1" cx="80" cy="80" r="80"/><rect class="cls-2" x="199.98" y="257.85" width="46.34" height="8.84" rx="4.42" transform="translate(326.79 -126.93) rotate(90)"/><path class="cls-2" d="M265,249.14l-45-34.95a4.41,4.41,0,0,1,0-6.25h0a4.41,4.41,0,0,1,6.25,0l45,34.95a4.41,4.41,0,0,1,0,6.25h0A4.41,4.41,0,0,1,265,249.14Z" transform="translate(-158.63 -166.04)"/><path class="cls-2" d="M226.28,284.14l45-34.95a4.41,4.41,0,0,0,0-6.25h0a4.41,4.41,0,0,0-6.25,0l-45,34.95a4.41,4.41,0,0,0,0,6.25h0A4.41,4.41,0,0,0,226.28,284.14Z" transform="translate(-158.63 -166.04)"/></svg>