<?xml version="1.0" encoding="utf-8"?>
<!-- Generator: Adobe Illustrator 23.0.4, SVG Export Plug-In . SVG Version: 6.00 Build 0)  -->
<svg version="1.1" xmlns="http://www.w3.org/2000/svg" xmlns:xlink="http://www.w3.org/1999/xlink" x="0px" y="0px"
	 viewBox="0 0 530 62" enable-background="new 0 0 530 62" xml:space="preserve">
<g id="logo_x5F_english">
</g>
<g id="logo_x5F_korean">
	<rect x="-20" y="-57" display="none" fill="#EAEAEA" width="570" height="128"/>
</g>
<g id="grid">
	<g>
		<g>
			<rect y="1.212" fill="#FFFFFF" width="55.679" height="11.915"/>
			<rect y="25.042" fill="#FFFFFF" width="55.679" height="11.915"/>
			<rect y="48.873" fill="#FFFFFF" width="55.679" height="11.915"/>
		</g>
		<rect x="300.08" y="25.115" fill="#FFFFFF" width="11.915" height="35.649"/>
		<polygon fill="#FFFFFF" points="324.655,1.212 324.655,25.042 287.421,25.042 287.421,1.212 275.506,1.212 275.506,25.042 
			275.506,36.957 275.506,36.958 336.57,36.958 336.57,36.957 336.57,25.042 336.57,1.212 		"/>
		<g>
			<rect x="144.144" y="1.212" fill="#FFFFFF" width="55.679" height="11.915"/>
			<rect x="144.144" y="25.042" fill="#FFFFFF" width="55.679" height="11.915"/>
			<rect x="144.144" y="48.873" fill="#FFFFFF" width="55.679" height="11.915"/>
		</g>
		<path fill="#FFFFFF" d="M442.365,0.616c-16.78,0-30.383,13.603-30.383,30.384c0,16.78,13.603,30.384,30.383,30.384
			c16.78,0,30.383-13.603,30.383-30.384C472.749,14.22,459.146,0.616,442.365,0.616z M442.365,49.356
			c-10.161,0-18.397-8.237-18.397-18.398s8.236-18.398,18.397-18.398s18.397,8.237,18.397,18.398S452.526,49.356,442.365,49.356z"/>
		<rect x="474.321" y="1.212" fill="#FFFFFF" width="55.679" height="11.915"/>
		<rect x="496.203" y="25.042" fill="#FFFFFF" width="11.915" height="35.745"/>
		<path fill="#FFFFFF" d="M403.526,19.085c0-9.863-7.989-17.859-17.849-17.872V1.212h-37.83v11.915h21.031h16.799l0,0
			c3.283,0.013,5.942,2.647,5.942,5.933c0,3.295-2.671,5.982-5.966,5.982h-37.806l0,0v11.915v0h37.83v0
			c3.29,0,5.958,2.667,5.958,5.958c0,3.29-2.667,5.958-5.958,5.958h-16.817h-21.013v11.915h37.83
			c9.858,0,17.849-7.991,17.849-17.849c0-4.583-1.729-8.762-4.569-11.923C401.797,27.852,403.526,23.671,403.526,19.085z"/>
		<polygon fill="#FFFFFF" points="126.407,1.212 99.965,46.745 73.428,1.212 59.637,1.212 94.358,60.788 97.912,60.788 
			102.041,60.788 105.588,60.788 140.186,1.212 		"/>
		<path fill="#FFFFFF" d="M266.843,19.085c0-9.871-8.002-17.873-17.873-17.873h-37.83v11.915h21.031h16.799
			c3.295,0,5.966,2.639,5.966,5.933c0,3.295-2.671,5.982-5.966,5.982h-16.817H211.14v11.915h28.081l13.823,23.825h13.775
			L252.76,36.551C260.81,34.812,266.843,27.655,266.843,19.085z"/>
	</g>
</g>
</svg>
